<?xml version="1.0" standalone="no"?><!DOCTYPE svg PUBLIC "-//W3C//DTD SVG 1.1//EN" "http://www.w3.org/Graphics/SVG/1.1/DTD/svg11.dtd"><svg t="1583146109958" class="icon" viewBox="0 0 1024 1024" version="1.1" xmlns="http://www.w3.org/2000/svg" p-id="45209" xmlns:xlink="http://www.w3.org/1999/xlink" width="200" height="200"><defs><style type="text/css"></style></defs><path d="M32 858.784c0 72.016 58.576 130.56 130.544 130.56h696.24c72.016 0 130.56-58.544 130.56-130.56V162.544c0-71.968-58.544-130.544-130.56-130.544H162.544C90.576 32 32 90.576 32 162.544v696.24z m87.024-696.24a43.6 43.6 0 0 1 43.52-43.52h696.24a43.616 43.616 0 0 1 43.536 43.52v696.24a43.616 43.616 0 0 1-43.536 43.536H162.544a43.616 43.616 0 0 1-43.52-43.536V162.544z" p-id="45210"></path><path d="M467.152 771.76h87.056V554.192h217.552v-87.04H554.208V249.568h-87.056v217.584H249.568v87.04h217.584z" p-id="45211"></path></svg>