<?xml version="1.0" standalone="no"?><!DOCTYPE svg PUBLIC "-//W3C//DTD SVG 1.1//EN" "http://www.w3.org/Graphics/SVG/1.1/DTD/svg11.dtd"><svg t="1581847578167" class="icon" viewBox="0 0 1024 1024" version="1.1" xmlns="http://www.w3.org/2000/svg" p-id="7532" width="200" height="200" xmlns:xlink="http://www.w3.org/1999/xlink"><defs><style type="text/css"></style></defs><path d="M503.466667 0C300.373333 0 170.666667 163.84 170.666667 366.933333s283.306667 494.933333 332.8 494.933334c49.493333 0 332.8-291.84 332.8-494.933334C836.266667 163.84 706.56 0 503.466667 0z m0 477.866667c-80.213333 0-145.066667-64.853333-145.066667-145.066667s64.853333-145.066667 145.066667-145.066667 145.066667 64.853333 145.066666 145.066667-64.853333 145.066667-145.066666 145.066667z m-256 264.533333C126.293333 768 51.2 808.96 51.2 870.4c0 95.573333 204.8 153.6 460.8 153.6s460.8-58.026667 460.8-153.6c0-63.146667-80.213333-105.813333-209.92-131.413333-18.773333-3.413333-35.84 8.533333-39.253333 27.306666-3.413333 18.773333 8.533333 35.84 27.306666 39.253334 97.28 18.773333 155.306667 49.493333 155.306667 64.853333 0 3.413333-5.12 8.533333-18.773333 18.773333-18.773333 11.946667-46.08 23.893333-81.92 34.133334-76.8 22.186667-180.906667 34.133333-291.84 34.133333-110.933333 0-216.746667-11.946667-291.84-34.133333-35.84-10.24-63.146667-22.186667-81.92-34.133334-15.36-10.24-20.48-15.36-20.48-18.773333 0-13.653333 52.906667-42.666667 141.653333-61.44 18.773333-3.413333 30.72-22.186667 25.6-40.96-1.706667-18.773333-20.48-30.72-39.253333-25.6z" p-id="7533" fill="#e0620d"></path></svg>