<?xml version="1.0" standalone="no"?><!DOCTYPE svg PUBLIC "-//W3C//DTD SVG 1.1//EN" "http://www.w3.org/Graphics/SVG/1.1/DTD/svg11.dtd"><svg t="1582382216944" class="icon" viewBox="0 0 1024 1024" version="1.1" xmlns="http://www.w3.org/2000/svg" p-id="13588" xmlns:xlink="http://www.w3.org/1999/xlink" width="200" height="200"><defs><style type="text/css"></style></defs><path d="M509.700119 325.887208c-126.151142 0-228.326219 101.694123-228.326219 227.200582 0 125.489062 102.176101 227.200582 228.326219 227.200582 126.110209 0 228.323149-101.712543 228.323149-227.200582C738.023268 427.581332 635.810329 325.887208 509.700119 325.887208zM639.666146 663.969157c-61.541635 71.477938-169.637562 79.718623-241.418398 18.497283-71.814606-61.23669-80.091106-168.817893-18.549471-240.256946 61.505819-71.475891 169.599699-79.717599 241.415328-18.48091C692.927187 484.949924 701.205735 592.528058 639.666146 663.969157z" p-id="13589" fill="#A9A9A9"></path><path d="M509.700119 439.479313c-63.076594 0-114.163109 50.873668-114.163109 113.573685l0 0.034792c0 7.849782 6.349615 14.199397 14.268982 14.199397 7.885598 0 14.272052-6.349615 14.272052-14.199397l0-0.034792c0-47.038316 38.315654-85.175915 85.622076-85.175915 7.848759 0 14.270005-6.349615 14.270005-14.199397C523.970124 445.830975 517.548878 439.479313 509.700119 439.479313z" p-id="13590" fill="#A9A9A9"></path><path d="M894.781498 298.614052l-123.723859-20.512173-39.170115-97.520057c-13.127995-32.536021-44.308135-53.531194-79.484286-53.531194L366.995977 127.050628c-35.176151 0-66.392106 20.995173-79.55694 53.54859l-39.136346 97.503685L124.650463 298.614052c-41.48995 6.847965-71.602781 42.185798-71.602781 84.034928l0 426.003394c0 46.950312 38.388309 85.193311 85.6231 85.193311l742.054583 0c47.201022 0 85.621053-38.242999 85.621053-85.193311L966.346417 382.647957C966.34744 340.798826 936.237679 305.462017 894.781498 298.614052zM909.268444 808.652374c0 15.696494-12.773931 28.396747-28.542056 28.396747L138.671805 837.049121c-15.767102 0-28.542056-12.700253-28.542056-28.396747L110.129748 382.647957c0-13.894452 10.061147-25.740244 23.833825-28.006867l155.402349-25.75764 51.124378-127.166261c4.317329-10.790764 14.803147-17.873066 26.505677-17.873066l285.407262 0c11.664667 0 22.152533 7.082302 26.469861 17.873066l51.123354 127.166261 155.401326 25.75764c13.771655 2.266623 23.86964 14.112416 23.86964 28.006867L909.267421 808.652374z" p-id="13591" fill="#A9A9A9"></path></svg>