<?xml version="1.0" standalone="no"?><!DOCTYPE svg PUBLIC "-//W3C//DTD SVG 1.1//EN" "http://www.w3.org/Graphics/SVG/1.1/DTD/svg11.dtd"><svg t="1583225566075" class="icon" viewBox="0 0 1024 1024" version="1.1" xmlns="http://www.w3.org/2000/svg" p-id="4344" xmlns:xlink="http://www.w3.org/1999/xlink" width="200" height="200"><defs><style type="text/css"></style></defs><path d="M287.403 352.076h446.716c17.613 0 31.909-14.334 31.909-31.994s-14.296-31.993-31.91-31.993H287.404c-17.613 0-31.909 14.334-31.909 31.993 0 17.66 14.296 31.994 31.909 31.994m446.715 127.46H287.403c-17.613 0-31.909 14.334-31.909 31.994s14.296 31.994 31.909 31.994h446.716c17.613 0 31.909-14.333 31.909-31.994-0.001-17.66-14.296-31.993-31.91-31.993m0 191.959H287.403c-17.613 0-31.909 14.333-31.909 31.993 0 17.66 14.296 31.994 31.909 31.994h446.716c17.613 0 31.909-14.334 31.909-31.994-0.001-17.66-14.296-31.993-31.91-31.993M417.716 159.86h159.541c26.453 0 47.862-21.5 47.862-47.99 0-26.49-21.442-47.99-47.862-47.99H417.716c-26.42 0-47.862 21.5-47.862 47.99-0.001 26.491 21.442 47.99 47.862 47.99m412.127-63.986h-31.909c-17.613 0-31.908 14.333-31.908 31.993 0 17.66 14.295 31.994 31.908 31.994h31.909c35.195 0 63.816 28.697 63.816 63.986V831.72c0 35.288-28.621 63.986-63.816 63.986H191.678c-35.196 0-63.817-28.698-63.817-63.986V223.846c0-35.289 28.622-63.986 63.817-63.986h31.908c17.613 0 31.909-14.334 31.909-31.994s-14.296-31.993-31.909-31.993h-31.908c-70.486 0-127.633 57.3-127.633 127.972v607.872c0 70.672 57.147 127.972 127.633 127.972h638.165c70.485 0 127.633-57.3 127.633-127.972v-607.87c0-70.673-57.148-127.973-127.633-127.973m0 0" p-id="4345"></path></svg>