<?xml version="1.0" standalone="no"?><!DOCTYPE svg PUBLIC "-//W3C//DTD SVG 1.1//EN" "http://www.w3.org/Graphics/SVG/1.1/DTD/svg11.dtd"><svg t="1583142846677" class="icon" viewBox="0 0 1024 1024" version="1.1" xmlns="http://www.w3.org/2000/svg" p-id="33848" xmlns:xlink="http://www.w3.org/1999/xlink" width="200" height="200"><defs><style type="text/css"></style></defs><path d="M862.797 704.436v-8.759c0-186.266 0-372.537-0.005-558.803 0-25.432-12.189-37.564-37.7-37.564h-626.841c-24.036 0-36.462 12.519-36.462 36.744v754.983c0 24.119 12.441 36.502 36.652 36.502 114.491 0 228.982-0.013 343.473 0.018 18.8 0.005 31.997 11.476 33.877 29.187 1.762 16.646-11.203 32.596-27.866 34.217-2.189 0.211-4.4 0.225-6.596 0.225-115.151 0.008-230.303 0.101-345.455-0.036-45.582-0.053-82.697-27.76-94.177-70.256-2.153-7.975-3.347-16.474-3.352-24.735-0.172-254.963-0.194-509.927-0.101-764.887 0.018-53.038 42.037-95.432 95.133-95.481 212.684-0.189 425.368-0.194 638.052 0.008 52.131 0.049 93.953 41.667 94.921 93.772 0.467 25.092 0.128 50.197 0.128 75.298 0.026 176.798 0.062 353.602 0.049 530.4 0 17.487-5.752 32.983-18.113 45.393-63.716 63.95-127.411 127.918-191.617 191.375-11.137 11.009-27.144 15.311-41.848 18.394-19.442 4.073-35.141-11.784-35.168-32.27-0.083-62.748-0.119-125.5 0-188.248 0.070-37.854 27.466-65.258 65.535-65.417 49.537-0.202 99.078-0.053 148.619-0.053 2.62-0.008 5.244-0.008 8.86-0.008v0zM703.718 891.834c40.761-40.778 82.353-82.384 122.924-122.963h-122.924v122.963z" p-id="33849"></path><path d="M512.194 226.783c62.722 0 125.443-0.026 188.165 0.018 16.315 0.013 27.853 7.35 32.873 20.596 7.618 20.116-6.416 41.404-28.434 43.086-2.189 0.167-4.4 0.119-6.596 0.119-123.902 0.005-247.804 0.026-371.705-0.075-5.214-0.005-10.666-0.405-15.593-1.942-14.708-4.593-23.115-18.813-21.195-34.653 1.704-14.070 13.748-25.506 28.395-26.849 3.061-0.282 6.152-0.286 9.23-0.286 61.621-0.022 123.241-0.018 184.862-0.013v0z" p-id="33850"></path><path d="M511.872 481.584c-62.281 0-124.562-0.036-186.844 0.039-8.834 0.008-17.051-1.44-24.066-7.262-10.010-8.314-14.044-21.649-10.204-33.948 4.012-12.85 14.946-21.424 28.792-22.538 1.753-0.141 3.518-0.106 5.28-0.106 125.003-0.005 250.005-0.013 375.007 0.005 17.866 0.005 30.222 8.715 34.34 24.044 4.954 18.438-7.891 37.303-26.898 39.373-3.272 0.356-6.588 0.379-9.886 0.379-61.837 0.018-123.677 0.013-185.522 0.013v0z" p-id="33851"></path><path d="M432.386 609.088c37.391 0 74.787-0.137 112.183 0.075 13.048 0.070 22.754 6.495 28.267 18.271 5.394 11.512 4.078 22.802-3.655 32.926-6.742 8.825-16.034 12.379-27.105 12.361-60.273-0.106-120.542-0.049-180.815-0.049-12.978 0-25.959 0.075-38.933-0.022-19.195-0.141-33.010-13.656-32.895-32.036 0.11-18.029 13.85-31.442 32.75-31.513 36.735-0.132 73.471-0.039 110.206-0.039-0.005 0.008-0.005 0.018-0.005 0.026v0z" p-id="33852"></path></svg>