<?xml version="1.0" standalone="no"?><!DOCTYPE svg PUBLIC "-//W3C//DTD SVG 1.1//EN" "http://www.w3.org/Graphics/SVG/1.1/DTD/svg11.dtd"><svg t="1583145257106" class="icon" viewBox="0 0 1024 1024" version="1.1" xmlns="http://www.w3.org/2000/svg" p-id="40648" xmlns:xlink="http://www.w3.org/1999/xlink" width="200" height="200"><defs><style type="text/css"></style></defs><path d="M227.118362 0.628913H67.148598C30.252346 0.628913 0.217701 30.72 0.217701 67.713008v160.28422c0 36.984945 30.034646 67.084094 66.947023 67.084095h159.961701c36.912378 0 66.938961-30.09915 66.938961-67.084095V67.704945c0-36.984945-30.026583-67.084094-66.938961-67.084095z m-0.209638 728.70904c36.912378 0 66.947024 30.091087 66.947024 67.084094v160.292284c0 36.984945-30.034646 67.084094-66.947024 67.084094H66.938961c-36.904315 0-66.938961-30.09915-66.938961-67.084094h0.209638v-160.292284c0-36.993008 30.034646-67.084094 66.947023-67.084094z m0 51.2H66.938961a15.859906 15.859906 0 0 0-15.84378 15.884094h0.209638v160.292284c0 8.772535 7.095433 15.884094 15.851842 15.884094h159.752063a15.859906 15.859906 0 0 0 15.851843-15.884094v-160.292284c0-8.780598-7.095433-15.884094-15.851843-15.884094z m769.773859 70.220598a25.656441 25.656441 0 0 1 25.648378 25.704819 25.656441 25.656441 0 0 1-25.648378 25.704819h-574.568819a25.656441 25.656441 0 0 1-25.656441-25.704819 25.656441 25.656441 0 0 1 25.656441-25.704819z m-769.773859-485.674331c36.912378 0 66.947024 30.09915 66.947024 67.084095v160.292283c0 36.984945-30.034646 67.084094-66.947024 67.084095H66.938961C30.042709 659.53663 0 629.43748 0 592.452535h0.209638v-160.292283c0-36.984945 30.034646-67.084094 66.947023-67.084095z m0 50.990363H66.938961a15.859906 15.859906 0 0 0-15.84378 15.884094h0.209638v160.292284c0 8.772535 7.095433 15.884094 15.851842 15.884094h159.752063a15.859906 15.859906 0 0 0 15.851843-15.884094v-160.292284c0-8.772535-7.095433-15.884094-15.851843-15.884094z m769.773859 70.430236a25.656441 25.656441 0 0 1 25.648378 25.704819 25.656441 25.656441 0 0 1-25.648378 25.704819h-574.568819a25.656441 25.656441 0 0 1-25.656441-25.704819 25.656441 25.656441 0 0 1 25.656441-25.704819zM227.118362 51.828913c8.756409 0 15.84378 7.103496 15.84378 15.884095v160.28422c0 8.780598-7.08737 15.884094-15.84378 15.884095H67.148598a15.859906 15.859906 0 0 1-15.843779-15.884095V67.704945c0-8.772535 7.095433-15.884094 15.851842-15.884095h159.961701z m769.564221 70.212536a25.656441 25.656441 0 0 1 25.648378 25.704819 25.656441 25.656441 0 0 1-25.648378 25.704819h-574.568819a25.656441 25.656441 0 0 1-25.656441-25.704819 25.656441 25.656441 0 0 1 25.656441-25.704819z" p-id="40649"></path></svg>