<?xml version="1.0" standalone="no"?><!DOCTYPE svg PUBLIC "-//W3C//DTD SVG 1.1//EN" "http://www.w3.org/Graphics/SVG/1.1/DTD/svg11.dtd"><svg t="1583143848428" class="icon" viewBox="0 0 1024 1024" version="1.1" xmlns="http://www.w3.org/2000/svg" p-id="35355" xmlns:xlink="http://www.w3.org/1999/xlink" width="200" height="200"><defs><style type="text/css"></style></defs><path d="M512 73.142857L146.285714 177.005714v19.748572q0 345.234286 12.434286 477.622857a146.285714 146.285714 0 0 0 45.348571 81.188571 637.805714 637.805714 0 0 0 130.925715 99.474286c36.571429 22.674286 73.142857 43.885714 114.834285 63.634286l48.274286 23.405714h3.657143L512 950.857143l9.508571-4.388572 48.274286-21.942857c39.497143-19.017143 78.262857-38.765714 114.834286-60.708571a570.514286 570.514286 0 0 0 139.702857-105.325714 125.074286 125.074286 0 0 0 37.302857-78.262858q12.434286-146.285714 12.434286-479.085714v-24.137143z m299.885714 599.04a79.725714 79.725714 0 0 1-23.405714 44.617143A544.914286 544.914286 0 0 1 658.285714 814.08c-35.108571 20.48-73.142857 40.228571-110.445714 58.514286l-36.571429 16.822857h-4.388571l-36.571429-18.285714c-38.034286-19.017143-73.142857-39.497143-111.177142-60.708572a663.405714 663.405714 0 0 1-122.148572-91.428571 99.474286 99.474286 0 0 1-30.72-50.468572C198.217143 585.142857 193.828571 434.468571 193.828571 219.428571L512 124.342857 824.32 219.428571q0 312.32-12.434286 452.754286z" p-id="35356"></path><path d="M296.228571 567.588571a26.331429 26.331429 0 0 1 0-34.377142l95.085715-105.325715a20.48 20.48 0 0 1 16.091428-7.314285 19.748571 19.748571 0 0 1 15.36 6.582857l102.4 106.057143 171.885715-236.982858A22.674286 22.674286 0 0 1 713.142857 292.571429a19.748571 19.748571 0 0 1 15.36 6.582857 25.6 25.6 0 0 1 0 34.377143L541.257143 585.142857a21.942857 21.942857 0 0 1-16.091429 7.314286A20.48 20.48 0 0 1 512 585.142857L406.674286 478.354286 326.948571 566.857143a18.285714 18.285714 0 0 1-15.36 7.314286 19.748571 19.748571 0 0 1-15.36-6.582858z" p-id="35357"></path></svg>