<?xml version="1.0" standalone="no"?><!DOCTYPE svg PUBLIC "-//W3C//DTD SVG 1.1//EN" "http://www.w3.org/Graphics/SVG/1.1/DTD/svg11.dtd"><svg t="1582797913849" class="icon" viewBox="0 0 1024 1024" version="1.1" xmlns="http://www.w3.org/2000/svg" p-id="4445" xmlns:xlink="http://www.w3.org/1999/xlink" width="200" height="200"><defs><style type="text/css"></style></defs><path d="M512 1024C229.220174 1024 0 794.779826 0 512S229.220174 0 512 0s512 229.220174 512 512-229.220174 512-512 512z m-95.365565-526.870261l-85.526261 24.219826v-146.832695h84.769391v-54.494609h-84.769391v-151.373913h-55.251478v151.373913H171.408696v54.494609h104.448V536.486957c-42.384696 11.353043-81.741913 21.949217-113.530435 29.517913l17.408 56.008347c28.761043-8.325565 61.306435-17.408 96.122435-28.004174v193.758609c0 10.596174-4.541217 14.380522-15.137392 14.380522-9.082435 0-41.627826 0.75687-77.957565-0.75687 7.568696 15.137391 15.894261 38.600348 18.16487 52.98087 52.224 0 83.255652-1.513739 102.177391-10.596174 19.678609-9.082435 28.004174-23.462957 28.004174-56.008348v-210.409739l93.094956-28.004174-7.568695-52.224z m176.350608 292.151652c-41.627826 0-49.196522-5.298087-49.196521-34.05913V484.262957h162.726956c-3.027478 91.581217-7.568696 126.397217-17.408 136.993391-4.541217 6.054957-11.353043 6.811826-23.462956 6.811826s-46.169043 0-81.741913-3.784348c8.325565 13.623652 14.380522 34.05913 15.894261 48.439652 36.329739 2.270609 73.416348 2.270609 90.824347 1.513739 21.192348-2.270609 34.05913-6.811826 45.412174-20.435478 15.894261-18.16487 20.435478-68.87513 24.976696-199.813565 0.75687-6.811826 0.75687-21.949217 0.75687-21.949217H488.537043v322.426434c0 70.38887 23.462957 87.04 99.906783 87.04h149.860174c70.38887 0 88.553739-29.517913 96.122435-138.50713-15.894261-3.784348-38.600348-12.866783-51.467131-21.949218-3.784348 91.581217-10.596174 108.232348-48.439652 108.232348h-141.534609z m21.949218-627.444869c-46.925913 107.475478-127.910957 206.625391-216.464696 267.931826 11.353043 12.109913 27.247304 38.600348 33.302261 50.710261 74.173217-56.008348 144.562087-135.479652 196.786087-226.304 52.98087 88.553739 128.667826 174.83687 199.056696 222.519652 9.082435-15.137391 27.247304-35.57287 40.870956-46.169044-77.957565-44.655304-164.997565-137.750261-213.437217-225.54713 3.784348-9.082435 8.325565-17.408 12.109913-26.490435l-52.224-16.65113z" p-id="4446" fill="#f00f55"></path></svg>