<?xml version="1.0" standalone="no"?><!DOCTYPE svg PUBLIC "-//W3C//DTD SVG 1.1//EN" "http://www.w3.org/Graphics/SVG/1.1/DTD/svg11.dtd"><svg t="1583140992022" class="icon" viewBox="0 0 1117 1024" version="1.1" xmlns="http://www.w3.org/2000/svg" p-id="21825" xmlns:xlink="http://www.w3.org/1999/xlink" width="218.1640625" height="200"><defs><style type="text/css"></style></defs><path d="M231.703273 155.182545a30.999273 30.999273 0 0 0-30.999273 28.858182l-45.521455 682.728728A30.999273 30.999273 0 0 0 186.181818 899.909818h727.598546a30.999273 30.999273 0 0 0 30.999272-33.140363L899.258182 184.133818a30.999273 30.999273 0 0 0-30.999273-28.951273H231.796364z m0-93.090909h636.555636c65.349818 0 119.528727 50.641455 123.810909 115.805091l45.614546 682.728728a124.090182 124.090182 0 0 1-123.810909 132.375272H186.181818A124.090182 124.090182 0 0 1 62.370909 860.625455l45.521455-682.728728c4.282182-65.163636 58.461091-115.805091 123.810909-115.805091z m563.851636 248.180364h2.699636a248.273455 248.273455 0 1 1-496.546909 0h2.699637a46.545455 46.545455 0 1 1 87.784727 0h2.606545a155.182545 155.182545 0 1 0 310.365091 0h2.606546a46.545455 46.545455 0 1 1 87.784727 0z" p-id="21826"></path></svg>