<?xml version="1.0" standalone="no"?><!DOCTYPE svg PUBLIC "-//W3C//DTD SVG 1.1//EN" "http://www.w3.org/Graphics/SVG/1.1/DTD/svg11.dtd"><svg t="1582381033292" class="icon" viewBox="0 0 1654 1024" version="1.1" xmlns="http://www.w3.org/2000/svg" p-id="10083" width="323.046875" height="200" xmlns:xlink="http://www.w3.org/1999/xlink"><defs><style type="text/css"></style></defs><path d="M295.384615 275.692308c15.635692 0 30.404923-6.065231 41.708308-17.368616C348.396308 247.020308 354.461538 232.251077 354.461538 216.615385c0-15.635692-6.065231-30.404923-17.368615-41.708308A58.525538 58.525538 0 0 0 295.384615 157.538462c-15.635692 0-30.404923 6.065231-41.708307 17.368615A58.525538 58.525538 0 0 0 236.307692 216.615385c0 15.635692 6.065231 30.404923 17.368616 41.708307 11.303385 11.303385 26.072615 17.368615 41.708307 17.368616z" p-id="10084" fill="#A9A9A9"></path><path d="M1468.770462 84.046769L1142.744615 239.064615V180.302769c0-99.524923-81.92-180.302769-182.862769-180.302769H182.862769C81.92 0 0 80.777846 0 180.302769v663.394462C0 943.222154 81.92 1024 182.862769 1024h776.192c100.942769 0 182.862769-80.777846 182.862769-180.302769V784.935385l326.025847 156.672c46.355692 22.016 93.499077 22.016 129.929846 0 35.564308-22.055385 56.241231-64.472615 56.241231-115.081847V198.262154c0.827077-49.742769-19.849846-92.16-55.414154-114.215385-35.603692-22.055385-83.574154-22.055385-129.929846 0z m103.148307 122.446769v606.444308c0 22.843077-6.616615 40.802462-19.022769 48.167385-12.445538 7.325538-31.468308 5.710769-52.145231-4.096l-358.006154-172.780308V337.841231l357.179077-176.206769c21.504-9.806769 40.566154-11.421538 52.145231-4.096 12.406154 8.152615 19.849846 25.284923 19.849846 48.955076z m-1482.830769-27.490461c0-56.280615 42.850462-95.468308 99.918769-95.468308h779.657846c57.107692 0 83.928615 39.187692 83.928616 95.468308v664.694154c0 56.280615-26.860308 93.617231-83.928616 93.617231H189.006769c-57.107692 0-99.958154-37.336615-99.958154-93.617231V179.003077z" p-id="10085" fill="#A9A9A9"></path></svg>