<?xml version="1.0" standalone="no"?><!DOCTYPE svg PUBLIC "-//W3C//DTD SVG 1.1//EN" "http://www.w3.org/Graphics/SVG/1.1/DTD/svg11.dtd"><svg t="1584543027221" class="icon" viewBox="0 0 1024 1024" version="1.1" xmlns="http://www.w3.org/2000/svg" p-id="45492" xmlns:xlink="http://www.w3.org/1999/xlink" width="200" height="200"><defs><style type="text/css"></style></defs><path d="M199.224889 979.228444c-36.560593 0-70.826667-16.004741-94.814815-45.70074a122.595556 122.595556 0 0 1-23.988148-102.817185l52.54637-245.608297c5.707852-27.401481 20.555852-51.38963 42.268445-69.669926 21.712593-17.142519 49.114074-27.420444 76.534518-27.420444h62.824297l-1.137778-2.275556c-2.275556-5.726815-4.551111-10.296889-6.84563-16.00474-23.988148-61.686519-36.560593-119.940741-36.560592-173.643852 0-138.221037 111.957333-251.316148 249.021629-251.316148 137.102222 0 249.040593 111.957333 249.040593 251.316148 0 53.703111-12.572444 110.819556-36.560593 172.506074l-6.845629 17.123555-1.137778 2.275556h62.824296c27.420444 0 54.821926 9.159111 76.534519 27.439407 21.712593 17.123556 36.560593 42.268444 42.268444 69.669926l52.54637 245.608297a119.428741 119.428741 0 0 1-25.125926 102.817185 120.794074 120.794074 0 0 1-94.814814 45.70074H199.224889z m53.684148-431.824592c-29.696 0-55.959704 21.712593-62.824296 51.408592L137.53837 844.420741c-4.570074 19.418074 0 38.836148 12.572445 54.840889 12.553481 14.848 30.833778 23.988148 50.251852 23.988148h640.853333c19.437037 0 37.69837-9.140148 50.270815-23.988148 12.572444-14.848 17.142519-35.422815 12.572444-54.840889l-52.54637-245.608297c-5.726815-29.696-33.128296-51.38963-62.843259-51.389629h-91.382519v1.137778c-12.572444 22.85037-26.263704 46.838519-41.130667 69.669926-57.116444 85.674667-113.076148 143.928889-114.232888 143.928888-5.688889 5.726815-12.553481 9.159111-20.555852 9.159112-8.00237 0-14.848-3.432296-20.555852-9.140149 0 0-57.116444-57.116444-114.232889-143.928889a1133.662815 1133.662815 0 0 1-42.287407-69.688888v-1.137778h-91.382519zM520.229926 104.182519c-106.249481 0-191.905185 86.812444-191.905185 193.042962 0 59.410963 18.261333 156.520296 105.073778 287.876741 31.990519 47.976296 63.981037 87.969185 85.674666 111.957334l1.137778 1.137777 1.156741-1.137777a1018.69037 1018.69037 0 0 0 85.674666-113.095112c86.812444-132.513185 105.092741-229.603556 105.092741-287.857777 0-105.111704-85.674667-191.924148-191.905185-191.924148z" fill="#2F2F2F" p-id="45493"></path><path d="M520.229926 403.474963c-60.548741 0-109.662815-49.114074-109.662815-110.800593s49.114074-110.819556 109.662815-110.819555c60.548741 0 109.662815 49.114074 109.662815 110.819555 0 61.686519-49.114074 110.800593-109.662815 110.800593z m0-163.346963c-28.558222 0-52.54637 23.988148-52.54637 53.684148s23.988148 53.684148 52.527407 53.684148c28.577185 0 52.565333-23.988148 52.565333-53.684148s-23.988148-53.684148-52.54637-53.684148z" fill="#2F2F2F" p-id="45494"></path></svg>