<?xml version="1.0" standalone="no"?><!DOCTYPE svg PUBLIC "-//W3C//DTD SVG 1.1//EN" "http://www.w3.org/Graphics/SVG/1.1/DTD/svg11.dtd"><svg t="1586057887404" class="icon" viewBox="0 0 1228 1024" version="1.1" xmlns="http://www.w3.org/2000/svg" p-id="1582" xmlns:xlink="http://www.w3.org/1999/xlink" width="239.84375" height="200"><defs><style type="text/css"></style></defs><path d="M1120.3328 465.8432l-11.0592 5.7344-213.248 110.336-22.7072 11.7504-37.376 19.3536-12.2624 6.3232-12.2112 6.3232-97.1264 50.2528-68.9664-131.6352-8.704-16.5632-7.936-15.1808 1.0752-0.512 479.4624-233.728 6.3744-3.0976 4.6848 8.704 11.0592 20.48 65.7408 121.728-65.7408 34.0224-11.0592 5.7088z m-192.9728 259.712l-37.8368-0.8192a16.128 16.128 0 0 0-11.8784 5.632l-26.6752 30.4128 4.5312-31.7184a13.6448 13.6448 0 0 0-6.912-14.2848l-25.4208-13.2096 42.624-30.6944a18.8416 18.8416 0 0 0 6.656-8.96l1.92-5.4016 3.7632-10.496 3.7376-10.496 8.2688-23.1424 13.568 22.8352c3.3536 5.632 10.0608 7.808 16.3072 5.2992l26.3936-10.5216-17.4592 28.5952-5.7856 9.472-0.8192 1.3568a17.3312 17.3312 0 0 0-2.4832 9.3696c0 0.7936-0.1792 1.6128-0.0512 2.3808l7.552 44.3904z m181.9136 21.4016v9.5744l-2.816 1.3568-12.544 6.144-469.1968 229.9136V552.5504l80.256 153.1392 131.2256-67.8912 12.2368-6.3488 12.2112-6.3232 1.2288 0.6144-3.7376 10.496-3.7376 10.496-2.4576 6.8352-49.152 35.3792a18.5344 18.5344 0 0 0-7.6032 15.744 13.184 13.184 0 0 0 6.9888 10.9312l30.6176 15.872-7.7568 54.4256a13.44 13.44 0 0 0 7.424 14.5664c1.7664 0.7936 3.584 1.2032 5.4528 1.2032a15.6416 15.6416 0 0 0 11.5968-5.6576l43.0592-49.1008 41.2672 0.896h0.2816c4.2752 0 8.5248-2.048 11.6992-5.7088a17.792 17.792 0 0 0 4.352-14.2848l-6.3232-37.2992-1.8432-10.8544 1.1008-1.8176 5.8112-9.4976 28.4928-46.6688c3.7888-6.2208 3.6096-13.3632-0.4608-18.176a13.056 13.056 0 0 0-15.0528-3.5328l-43.1616 17.2032-10.0352-16.896 200.576-103.7824v250.4448z m-975.872 17.1008l-12.544-6.144-2.816-1.3824V496.512l248.6016 128.6144 12.2368 6.3232 12.2368 6.3488 131.2256 67.8912 80.256-153.1392v441.3952L133.376 764.0576zM107.008 465.8432l-11.0592-5.7088-65.7664-34.0224 65.7664-121.7536 11.0592-20.48 4.6848-8.704 6.4 3.1232L597.4528 512l1.1008 0.512-7.936 15.1808-8.704 16.5632-68.9664 131.6352-97.1264-50.2528-12.2368-6.3232-12.2112-6.3232L118.016 471.552l-11.0592-5.7344zM613.6576 24.6528l480.2304 235.3152-480.2304 235.2896-480.256-235.2896L613.6832 24.6528z m517.7344 233.1392l-2.9952-5.5808-8.064-3.9424-1.28-0.64L613.632 0 108.288 247.6288l-1.3056 0.64-8.064 3.9424-2.9952 5.5808L0 435.456l95.9232 49.6128V770.304l12.3392 6.0416 494.336 242.2272 11.0592 5.4016 11.0592-5.4016 494.336-242.2272 12.3392-6.0416V485.0432l95.9232-49.6128-95.9232-177.6384z" p-id="1583" fill="#515151"></path></svg>