<?xml version="1.0" standalone="no"?><!DOCTYPE svg PUBLIC "-//W3C//DTD SVG 1.1//EN" "http://www.w3.org/Graphics/SVG/1.1/DTD/svg11.dtd"><svg t="1584543173827" class="icon" viewBox="0 0 1080 1024" version="1.1" xmlns="http://www.w3.org/2000/svg" p-id="46944" xmlns:xlink="http://www.w3.org/1999/xlink" width="210.9375" height="200"><defs><style type="text/css"></style></defs><path d="M783.075556 1000.106667c-14.563556 0-31.004444-4.209778-46.250667-11.832889l-217.201778-108.657778L300.942222 988.16c-13.880889 7.395556-29.696 11.264-45.852444 11.264-21.219556 0-41.927111-6.826667-58.311111-19.114667-30.606222-22.926222-46.307556-62.691556-39.082667-98.872889l44.714667-231.936L31.118222 489.699556a105.415111 105.415111 0 0 1-26.624-102.058667l0.341334-1.137778c12.458667-37.376 43.349333-63.544889 80.782222-68.551111l238.136889-43.292444L430.648889 57.571556C447.772444 23.210667 482.702222 1.137778 519.623111 1.137778c38.570667 0 74.353778 22.869333 89.315556 57.059555l106.552889 216.348445 238.136888 41.642666c37.546667 5.233778 69.290667 32.995556 79.36 69.290667 11.719111 36.181333 2.275556 75.377778-24.803555 102.4l-0.568889 0.568889-170.894222 160.995556 43.178666 232.334222a99.783111 99.783111 0 0 1-38.570666 98.076444c-15.928889 13.084444-36.636444 20.252444-58.254222 20.252445z m-263.395556-183.694223l242.460444 121.230223a52.337778 52.337778 0 0 0 20.935112 5.859555 35.157333 35.157333 0 0 0 22.584888-7.566222l1.137778-0.910222a43.576889 43.576889 0 0 0 17.464889-42.894222l-48.810667-262.712889 192.967112-181.76a44.088889 44.088889 0 0 0 10.638222-45.056l-0.568889-1.706667a39.822222 39.822222 0 0 0-32.938667-28.728889l-1.137778-0.170667-266.979555-46.648888-120.149333-244.053334c-5.802667-13.653333-21.617778-23.552-37.603556-23.552a43.975111 43.975111 0 0 0-38.343111 25.031111L361.927111 325.233778l-268.401778 48.753778c-16.327111 2.048-29.013333 12.856889-34.816 29.752888a49.493333 49.493333 0 0 0 12.117334 45.624889l193.137777 179.996445-50.688 262.940444c-3.072 15.246222 4.152889 32.711111 17.464889 42.666667 6.712889 5.12 15.36 7.793778 24.405334 7.793778a40.96 40.96 0 0 0 19.456-4.721778l0.853333-0.455111 244.224-121.173334z" fill="#2c2c2c" p-id="46945"></path><path d="M782.791111 462.279111a12.174222 12.174222 0 0 1-2.218667-0.227555l-176.184888-30.776889-78.848-160.199111a13.027556 13.027556 0 0 1 23.324444-11.548445L621.795556 407.893333l163.214222 28.501334a13.027556 13.027556 0 0 1-2.275556 25.884444z" fill="#2c2c2c" p-id="46946"></path></svg>