<?xml version="1.0" standalone="no"?><!DOCTYPE svg PUBLIC "-//W3C//DTD SVG 1.1//EN" "http://www.w3.org/Graphics/SVG/1.1/DTD/svg11.dtd"><svg t="1584511758678" class="icon" viewBox="0 0 1024 1024" version="1.1" xmlns="http://www.w3.org/2000/svg" p-id="9505" xmlns:xlink="http://www.w3.org/1999/xlink" width="200" height="200"><defs><style type="text/css"></style></defs><path d="M 656.741 305.703 a 260.367 260.367 0 0 1 -196.731 75.6978 a 259.535 259.535 0 0 1 272.013 -272.429 a 259.951 259.951 0 0 1 -75.2819 196.731 Z" fill="#ffa84a" p-id="9506"></path><path d="M 656.741 305.703 a 260.367 260.367 0 0 1 -196.731 75.6978 a 259.535 259.535 0 0 1 272.013 -272.429 a 259.951 259.951 0 0 1 -75.2819 196.731 Z" fill="#75a800" p-id="9507"></path><path d="M 656.741 305.703 a 260.367 260.367 0 0 1 -196.731 75.6978 l 272.013 -272.429 a 259.951 259.951 0 0 1 -75.2819 196.731 Z" fill="#ebe0cc" p-id="9508"></path><path d="M 596.432 192.572 a 260.367 260.367 0 0 1 -85.264 192.572 a 259.535 259.535 0 0 1 0 -385.144 a 260.783 260.783 0 0 1 85.264 192.572 Z" fill="#ffa84a" p-id="9509"></path><path d="M 596.432 192.572 a 260.367 260.367 0 0 1 -85.264 192.572 a 259.535 259.535 0 0 1 0 -385.144 a 260.783 260.783 0 0 1 85.264 192.572 Z" fill="#75a800" p-id="9510"></path><path d="M 596.432 192.572 a 260.367 260.367 0 0 1 -85.264 192.572 V 0 a 260.783 260.783 0 0 1 85.264 192.572 Z" fill="#ebe0cc" p-id="9511"></path><path d="M 619.724 353.118 m -108.14 0 a 108.14 108.14 0 1 0 216.279 0 a 108.14 108.14 0 1 0 -216.279 0 Z" fill="#c30201" p-id="9512"></path><path d="M 619.724 353.118 m -80.2729 0 a 80.2729 80.2729 0 1 0 160.546 0 a 80.2729 80.2729 0 1 0 -160.546 0 Z" fill="#fa1819" p-id="9513"></path><path d="M 571.477 309.446 m -26.2031 0 a 26.2031 26.2031 0 1 0 52.4062 0 a 26.2031 26.2031 0 1 0 -52.4062 0 Z" fill="#ffff9c" p-id="9514"></path><path d="M 403.028 353.118 m -108.14 0 a 108.14 108.14 0 1 0 216.279 0 a 108.14 108.14 0 1 0 -216.279 0 Z" fill="#c30201" p-id="9515"></path><path d="M 403.028 353.118 m -80.2729 0 a 80.2729 80.2729 0 1 0 160.546 0 a 80.2729 80.2729 0 1 0 -160.546 0 Z" fill="#fa1819" p-id="9516"></path><path d="M 355.197 309.446 m -26.2031 0 a 26.2031 26.2031 0 1 0 52.4062 0 a 26.2031 26.2031 0 1 0 -52.4062 0 Z" fill="#ffff9c" p-id="9517"></path><path d="M 186.749 569.813 m -108.14 0 a 108.14 108.14 0 1 0 216.279 0 a 108.14 108.14 0 1 0 -216.279 0 Z" fill="#c30201" p-id="9518"></path><path d="M 186.749 569.813 m -80.2729 0 a 80.2729 80.2729 0 1 0 160.546 0 a 80.2729 80.2729 0 1 0 -160.546 0 Z" fill="#fa1819" p-id="9519"></path><path d="M 138.918 526.141 m -26.2031 0 a 26.2031 26.2031 0 1 0 52.4062 0 a 26.2031 26.2031 0 1 0 -52.4062 0 Z" fill="#ffff9c" p-id="9520"></path><path d="M 727.864 455.435 m -108.14 0 a 108.14 108.14 0 1 0 216.279 0 a 108.14 108.14 0 1 0 -216.279 0 Z" fill="#c30201" p-id="9521"></path><path d="M 727.864 455.435 m -80.6889 0 a 80.6889 80.6889 0 1 0 161.378 0 a 80.6889 80.6889 0 1 0 -161.378 0 Z" fill="#fa1819" p-id="9522"></path><path d="M 679.617 411.763 m -26.2031 0 a 26.2031 26.2031 0 1 0 52.4062 0 a 26.2031 26.2031 0 1 0 -52.4062 0 Z" fill="#ffff9c" p-id="9523"></path><path d="M 511.168 455.435 m -108.14 0 a 108.14 108.14 0 1 0 216.279 0 a 108.14 108.14 0 1 0 -216.279 0 Z" fill="#c30201" p-id="9524"></path><path d="M 511.168 455.435 m -80.2729 0 a 80.2729 80.2729 0 1 0 160.546 0 a 80.2729 80.2729 0 1 0 -160.546 0 Z" fill="#fa1819" p-id="9525"></path><path d="M 463.337 411.763 m -26.2031 0 a 26.2031 26.2031 0 1 0 52.4062 0 a 26.2031 26.2031 0 1 0 -52.4062 0 Z" fill="#ffff9c" p-id="9526"></path><path d="M 294.889 455.435 m -108.14 0 a 108.14 108.14 0 1 0 216.279 0 a 108.14 108.14 0 1 0 -216.279 0 Z" fill="#c30201" p-id="9527"></path><path d="M 294.889 455.435 m -80.2729 0 a 80.2729 80.2729 0 1 0 160.546 0 a 80.2729 80.2729 0 1 0 -160.546 0 Z" fill="#fa1819" p-id="9528"></path><path d="M 247.058 411.763 m -26.2031 0 a 26.2031 26.2031 0 1 0 52.4062 0 a 26.2031 26.2031 0 1 0 -52.4062 0 Z" fill="#ffff9c" p-id="9529"></path><path d="M 727.864 677.953 m -108.14 0 a 108.14 108.14 0 1 0 216.279 0 a 108.14 108.14 0 1 0 -216.279 0 Z" fill="#ff7a00" p-id="9530"></path><path d="M 727.864 677.953 m -80.6889 0 a 80.6889 80.6889 0 1 0 161.378 0 a 80.6889 80.6889 0 1 0 -161.378 0 Z" fill="#ff6600" p-id="9531"></path><path d="M 679.617 634.281 m -26.2031 0 a 26.2031 26.2031 0 1 0 52.4062 0 a 26.2031 26.2031 0 1 0 -52.4062 0 Z" fill="#ffff9c" p-id="9532"></path><path d="M 511.168 677.953 m -108.14 0 a 108.14 108.14 0 1 0 216.279 0 a 108.14 108.14 0 1 0 -216.279 0 Z" fill="#ff7a00" p-id="9533"></path><path d="M 511.168 677.953 m -80.2729 0 a 80.2729 80.2729 0 1 0 160.546 0 a 80.2729 80.2729 0 1 0 -160.546 0 Z" fill="#ff6600" p-id="9534"></path><path d="M 463.337 634.281 m -26.2031 0 a 26.2031 26.2031 0 1 0 52.4062 0 a 26.2031 26.2031 0 1 0 -52.4062 0 Z" fill="#ffff9c" p-id="9535"></path><path d="M 294.889 677.953 m -108.14 0 a 108.14 108.14 0 1 0 216.279 0 a 108.14 108.14 0 1 0 -216.279 0 Z" fill="#c30201" p-id="9536"></path><path d="M 294.889 677.953 m -80.2729 0 a 80.2729 80.2729 0 1 0 160.546 0 a 80.2729 80.2729 0 1 0 -160.546 0 Z" fill="#fa1819" p-id="9537"></path><path d="M 247.058 634.281 m -26.2031 0 a 26.2031 26.2031 0 1 0 52.4062 0 a 26.2031 26.2031 0 1 0 -52.4062 0 Z" fill="#ffff9c" p-id="9538"></path><path d="M 403.028 569.813 m -108.14 0 a 108.14 108.14 0 1 0 216.279 0 a 108.14 108.14 0 1 0 -216.279 0 Z" fill="#c30201" p-id="9539"></path><path d="M 403.028 569.813 m -80.2729 0 a 80.2729 80.2729 0 1 0 160.546 0 a 80.2729 80.2729 0 1 0 -160.546 0 Z" fill="#fa1819" p-id="9540"></path><path d="M 355.197 526.141 m -26.2031 0 a 26.2031 26.2031 0 1 0 52.4062 0 a 26.2031 26.2031 0 1 0 -52.4062 0 Z" fill="#ffff9c" p-id="9541"></path><path d="M 619.724 569.813 m -108.14 0 a 108.14 108.14 0 1 0 216.279 0 a 108.14 108.14 0 1 0 -216.279 0 Z" fill="#c30201" p-id="9542"></path><path d="M 619.724 569.813 m -80.2729 0 a 80.2729 80.2729 0 1 0 160.546 0 a 80.2729 80.2729 0 1 0 -160.546 0 Z" fill="#fa1819" p-id="9543"></path><path d="M 571.477 526.141 m -26.2031 0 a 26.2031 26.2031 0 1 0 52.4062 0 a 26.2031 26.2031 0 1 0 -52.4062 0 Z" fill="#ffff9c" p-id="9544"></path><path d="M 512 664.522 H 77.3615 l 118.538 338.145 h 632.617 l 118.122 -338.145 H 512 Z" fill="#515151" p-id="9545"></path><path d="M 836.003 569.813 m -108.14 0 a 108.14 108.14 0 1 0 216.279 0 a 108.14 108.14 0 1 0 -216.279 0 Z" fill="#bfbfbf" p-id="9546"></path><path d="M 836.003 569.813 m -80.6889 0 a 80.6889 80.6889 0 1 0 161.378 0 a 80.6889 80.6889 0 1 0 -161.378 0 Z" fill="#dbdbdb" p-id="9547"></path><path d="M 787.756 526.141 m -26.2031 0 a 26.2031 26.2031 0 1 0 52.4062 0 a 26.2031 26.2031 0 1 0 -52.4062 0 Z" fill="#ffffff" p-id="9548"></path><path d="M 30.3623 606.414 h 963.275 v 79.4411 H 30.3623 Z" fill="#707070" p-id="9549"></path></svg>