<?xml version="1.0" standalone="no"?><!DOCTYPE svg PUBLIC "-//W3C//DTD SVG 1.1//EN" "http://www.w3.org/Graphics/SVG/1.1/DTD/svg11.dtd"><svg t="1584512237379" class="icon" viewBox="0 0 1024 1024" version="1.1" xmlns="http://www.w3.org/2000/svg" p-id="24937" xmlns:xlink="http://www.w3.org/1999/xlink" width="200" height="200"><defs><style type="text/css"></style></defs><path d="M449.2 451.5v0.92h-9.43c-1.44 0-2.92 0-4.54 0.09h-0.26c-0.76 0-1.52 0.05-2.29 0.11h-0.21c-0.7 0-1.41 0.08-2.09 0.14l-1.61 0.14h-0.12c-1 0.09-1.95 0.18-2.92 0.3h-0.34l-2.17 0.28-2.05 0.31h-0.34l-1.6 0.27-0.55 0.1a15.13 15.13 0 0 1-0.25-2.78 15.4 15.4 0 1 1 30.8 0z" fill="#FFFFFF" p-id="24938"></path><path d="M959.12 655.46a21.26 21.26 0 1 1-25 34.42l-79.62-57.74-127-3.63 4.29-16a117.52 117.52 0 0 0 3.9-25q3.36-0.39 6.66-1.08l119.92 3.43a21.24 21.24 0 0 1 11.87 4zM920 727.74a21.26 21.26 0 0 1-27.42 32.5L833 710l-123.34-14.74 11.12-41.49 123.62 14.8a21.23 21.23 0 0 1 11.18 4.86zM880.29 805.13a21.26 21.26 0 1 1-34.38 25L808.73 779l-129.26-13.88a21 21 0 0 1-9.4-3.38 118.55 118.55 0 0 0 29.25-37.24l123.34 13.28a21.26 21.26 0 0 1 14.91 8.63zM798.23 298.14c22.89 31.07 36 76.5 36 124.64 0 84.69-39.27 152.61-91.85 163.62l-6.6-0.19a118.91 118.91 0 0 0-5.67-40.9c14-1.36 28.24-12.72 39.5-31.64 14-23.59 22.1-56.72 22.1-90.89 0-28.33-5.56-55.84-15.37-77.8a96.48 96.48 0 0 0 5.34-18.9 21.14 21.14 0 0 0 4.94-7.26 96.73 96.73 0 0 0 6.6-25.52 21.18 21.18 0 0 1 5.01 4.84z" fill="#26251E" p-id="24939"></path><path d="M733.73 192.34a97.13 97.13 0 0 1 59.51 101 21.25 21.25 0 0 0-15.24-3.61 21.14 21.14 0 0 0-5.41-4.65 75.69 75.69 0 0 0-145.65-31.75l80.59 33.05-46.7 3.83-42-17.21a21.27 21.27 0 0 1-11.6-27.74 97.08 97.08 0 0 1 126.5-52.92z" fill="#26251E" p-id="24940"></path><path d="M793.24 293.3a96.73 96.73 0 0 1-6.6 25.52 21.14 21.14 0 0 1-4.94 7.26 96.46 96.46 0 0 0 1.42-17.67c0-2.31-0.14-4.63-0.32-6.88a21.18 21.18 0 0 0-4.81-11.8 21.25 21.25 0 0 1 15.25 3.57z" fill="#26251E" p-id="24941"></path><path d="M783.12 308.41a96.46 96.46 0 0 1-1.42 17.67 21.21 21.21 0 0 1-12.1 5.77 101.17 101.17 0 0 0-5.6-8.48 21.18 21.18 0 0 1-2.67-4.82 75.29 75.29 0 0 0 0.53-9.89l5.11 2.1a75.87 75.87 0 0 0 5.03-19.24 21.18 21.18 0 0 1 5.94-1.79 21.18 21.18 0 0 1 4.81 11.8c0.25 2.25 0.34 4.57 0.37 6.88z" fill="#26251E" p-id="24942"></path><path d="M781.7 326.08a96.48 96.48 0 0 1-5.34 18.9 124.34 124.34 0 0 0-6.76-13.13 21.21 21.21 0 0 0 12.1-5.77zM772.58 285.08a21.14 21.14 0 0 1 5.41 4.65 21.18 21.18 0 0 0-5.94 1.79c0.28-2.15 0.45-4.29 0.53-6.44zM725.67 212a75.68 75.68 0 0 1 46.91 73.06 21.06 21.06 0 0 0-12.71-3l-10.73 0.88-41.62 3.41-80.59-33.05a75.7 75.7 0 0 1 98.74-41.3z m-67 31.34l92.73 38a54.57 54.57 0 0 0-4.24-20.34 54.43 54.43 0 0 0-88.49-17.68z" fill="#26251E" p-id="24943"></path><path d="M772.58 285.08c-0.08 2.15-0.25 4.29-0.53 6.44a21.25 21.25 0 0 0-10.84 11.79l-10.33 0.85-43.36-17.78 41.62-3.38 10.73-0.88a21.06 21.06 0 0 1 12.71 2.96zM769.6 331.85a124.34 124.34 0 0 1 6.76 13.15 97.35 97.35 0 0 1-82.27 61.1c-2.69 0.22-5.39 0.33-8.07 0.33a97 97 0 0 1-96.45-89A21.26 21.26 0 0 1 609 294.45l51.8-4.24L704.18 308l-93.42 7.65a75.69 75.69 0 0 0 148.16 14.79 21.35 21.35 0 0 0 8 1.59 19.25 19.25 0 0 0 2.68-0.18z" fill="#26251E" p-id="24944"></path><path d="M768.5 293.64a20.81 20.81 0 0 1 3.55-2.12 75.87 75.87 0 0 1-5.05 19.24l-5.11-2.1c0-1.78-0.1-3.57-0.25-5.38h-0.4a21 21 0 0 1 7.26-9.64zM769.6 331.85a19.25 19.25 0 0 1-2.6 0.15 21.35 21.35 0 0 1-8-1.59 73.34 73.34 0 0 0 2.41-11.88 21.18 21.18 0 0 0 2.67 4.82 101.17 101.17 0 0 1 5.52 8.5zM761.86 308.66a75.29 75.29 0 0 1-0.53 9.89 21.11 21.11 0 0 1-1.33-10.63z" fill="#26251E" p-id="24945"></path><path d="M761.86 308.66l-1.81-0.74a20.5 20.5 0 0 1 1.16-4.61h0.4c0.15 1.78 0.23 3.57 0.25 5.35z" fill="#26251E" p-id="24946"></path><path d="M750.88 304.16l10.33-0.85a20.5 20.5 0 0 0-1.16 4.61zM750.88 304.16l9.17 3.76a21.11 21.11 0 0 0 1.28 10.63 73.34 73.34 0 0 1-2.41 11.88l-16.07-6.59L704.18 308z" fill="#26251E" p-id="24947"></path><path d="M758.89 330.42a75.69 75.69 0 0 1-148.16-14.79l93.45-7.63 38.63 15.84z m-21-3.87L638 334.74a54.44 54.44 0 0 0 99.89-8.19z" fill="#26251E" p-id="24948"></path><path d="M751.4 281.39l-92.73-38a54.47 54.47 0 0 1 92.73 38z" fill="#FFD72E" p-id="24949"></path><path d="M750.88 304.16l-46.71 3.83-43.35-17.78 46.69-3.83 43.37 17.78zM735.8 586.21l6.6 0.19q-3.3 0.69-6.66 1.08c0.03-0.42 0.04-0.85 0.06-1.27z" fill="#26251E" p-id="24950"></path><path d="M638 334.74l99.89-8.19a54.62 54.62 0 0 1-47.22 37.15 54.59 54.59 0 0 1-52.67-29z" fill="#FFD72E" p-id="24951"></path><path d="M730.13 545.31a118.91 118.91 0 0 1 5.67 40.9l-16.93-0.48h-1a21.25 21.25 0 0 1 9.46-40.29c0.92 0 1.86-0.05 2.8-0.13z" fill="#26251E" p-id="24952"></path><path d="M735.8 586.21c0 0.42 0 0.85-0.06 1.27a73.66 73.66 0 0 1-8.43 0.48 21 21 0 0 1-9.46-2.23h1z" fill="#26251E" p-id="24953"></path><path d="M735.74 587.48a117.52 117.52 0 0 1-3.9 25l-4.29 16-9.9-0.28a21.26 21.26 0 0 1 0.2-42.5 21 21 0 0 0 9.46 2.23 73.66 73.66 0 0 0 8.43-0.45z" fill="#26251E" p-id="24954"></path><path d="M730.13 545.31c-0.94 0.08-1.88 0.13-2.82 0.13a21.25 21.25 0 0 0-9.46 40.29 21.26 21.26 0 0 0-0.2 42.5l9.9 0.28-6.77 25.26-18.46-2.21a21.26 21.26 0 0 0-5.06 42.22l12.4 1.48-1.83 6.85a117.86 117.86 0 0 1-8.51 22.39L684 722.85a21.25 21.25 0 0 0-14 38.89 118.59 118.59 0 0 1-76.92 28.36h-154.4a118.59 118.59 0 0 1-76.92-28.36 21.26 21.26 0 0 0-14-38.89l-15.27 1.64a117.77 117.77 0 0 1-8.49-22.38l-1.84-6.85 12.39-1.48a21.26 21.26 0 1 0-5.06-42.22L311 653.77l-6.77-25.26 9.9-0.28a21.26 21.26 0 0 0-0.21-42.5 21.25 21.25 0 0 0-9.46-40.29c-0.93 0-1.86 0-2.8-0.13a118 118 0 0 1 59.53-69.6q8.37-4.17 17-7.9a58.1 58.1 0 0 0 16.43 26.38 21.23 21.23 0 0 0 14.47 5.69 20.8 20.8 0 0 0 6.27-1l-0.43 0.15a304.51 304.51 0 0 0-34.76 14.69c-32 16-48.5 52.87-39.16 87.71l24 89.63a76.32 76.32 0 0 0 73.6 56.48h154.54a76.32 76.32 0 0 0 73.6-56.48l24-89.63c9.35-34.84-7.13-71.73-39.17-87.71A303.79 303.79 0 0 0 616.8 499a21.32 21.32 0 0 0 20.33-4.76 58.12 58.12 0 0 0 16.51-26.45q8.61 3.72 17 7.89a118.09 118.09 0 0 1 59.49 69.63z" fill="#26251E" p-id="24955"></path><path d="M720.78 653.77l-11.12 41.49-12.4-1.48a21.26 21.26 0 0 1 5.06-42.22zM684 722.85l15.29 1.65a118.55 118.55 0 0 1-29.25 37.24 21.25 21.25 0 0 1 14-38.89z" fill="#26251E" p-id="24956"></path><path d="M651.6 513.76c32 16 48.52 52.87 39.17 87.71l-24 89.63a76.32 76.32 0 0 1-73.6 56.48H438.68a76.32 76.32 0 0 1-73.6-56.48l-24-89.63c-9.34-34.84 7.14-71.73 39.16-87.71A304.51 304.51 0 0 1 415 499.07l0.43-0.15a0.33 0.33 0 0 0 0.13 0l0.4-0.12c1.4-0.47 2.82-0.9 4.24-1.29l1.44-0.37 0.24-0.06c0.82-0.2 1.64-0.38 2.47-0.55l0.27-0.06 1-0.2 0.73-0.14 1.14-0.19h0.18l1.47-0.22 1.39-0.18h0.18l1.9-0.19H433.54l1.51-0.1h0.11c0.42 0 0.85-0.05 1.28-0.06h0.17c1.14 0 2.15-0.06 3.09-0.06h152.39c0.94 0 2 0 3.09 0.06h0.17c0.43 0 0.85 0 1.27 0.06l1.57 0.1 0.69 0.06h0.37l2.08 0.22h0.28l1 0.14h0.1l1.26 0.19H604.3l1.13 0.19 0.75 0.14 1 0.2h0.14c0.88 0.18 1.74 0.38 2.6 0.58l0.23 0.06 1.46 0.37c1.41 0.39 2.84 0.82 4.26 1.3l0.37 0.11a4.11 4.11 0 0 0 0.46 0.15 303.79 303.79 0 0 1 34.9 14.7z m6.58 79A42.3 42.3 0 0 0 636.55 544a270.1 270.1 0 0 0-30.93-13.08 40.89 40.89 0 0 0-13.53-2.21H439.74a41 41 0 0 0-13.54 2.21A271.61 271.61 0 0 0 395.27 544a42.3 42.3 0 0 0-21.62 48.78l24 89.62a42.54 42.54 0 0 0 41 31.48h154.5a42.52 42.52 0 0 0 41-31.48z" fill="#FFFFFF" p-id="24957"></path><path d="M636.55 544a42.3 42.3 0 0 1 21.63 48.78l-24 89.62a42.52 42.52 0 0 1-41 31.48h-154.5a42.54 42.54 0 0 1-41-31.48l-24-89.62A42.3 42.3 0 0 1 395.27 544a271.61 271.61 0 0 1 30.93-13.08 41 41 0 0 1 13.54-2.21h152.35a40.89 40.89 0 0 1 13.53 2.21A270.1 270.1 0 0 1 636.55 544z" fill="#FFD72E" p-id="24958"></path><path d="M655.95 451.5a58.07 58.07 0 0 1-2.35 16.32q-11.22-4.86-22.72-8.89c-0.49-0.18-1-0.35-1.5-0.51-2.92-1-6-1.87-9.05-2.62-1.52-0.39-3.06-0.73-4.7-1.05-0.81-0.17-1.62-0.32-2.45-0.47a15.13 15.13 0 0 0 0.25-2.78 15.41 15.41 0 1 0-30.81 0v0.92h9.44c1.44 0 2.92 0 4.54 0.09L595.35 495h-0.17c-1.14 0-2.15-0.06-3.09-0.06h-23.25v-42.52h-28.73v-0.92a57.93 57.93 0 1 1 115.85 0z" fill="#26251E" p-id="24959"></path><path d="M630.88 458.93q11.48 4 22.72 8.89a58.12 58.12 0 0 1-16.51 26.45 21.32 21.32 0 0 1-20.33 4.73 4.11 4.11 0 0 1-0.46-0.15l-0.46-0.15c-1.34-0.46-2.74-0.88-4.17-1.26l-1.46-0.37-0.21-0.07c-0.83-0.21-1.67-0.4-2.6-0.58h-0.14l-1-0.2-0.75-0.14-1.13-0.19-0.33-0.05-1.26-0.19h-0.1l-1-0.14h-0.46l5.36-42.18c0.74 0.09 1.48 0.18 2.21 0.29l1 0.15 1 0.16h0.15l1.19 0.2 1.12 0.19c0.83 0.15 1.64 0.3 2.45 0.47 1.64 0.32 3.18 0.66 4.7 1.05 3.09 0.75 6.13 1.63 9.05 2.62 0.42 0.12 0.93 0.29 1.42 0.47z" fill="#26251E" p-id="24960"></path><path d="M616.3 498.88l-0.37-0.11c-1.42-0.48-2.85-0.91-4.26-1.3 1.43 0.38 2.83 0.8 4.17 1.26z" fill="#26251E" p-id="24961"></path><path d="M613.43 451.5a15.13 15.13 0 0 1-0.25 2.78l-1.12-0.19-1.19-0.2h-0.15c-0.34-0.06-0.69-0.12-1-0.16l-1-0.15c-0.73-0.11-1.47-0.2-2.21-0.29l-0.45-0.06-2.92-0.29-1.39-0.12h-0.19l-2.28-0.15c-0.8-0.05-1.57-0.09-2.36-0.11h-0.25c-1.62-0.06-3.1-0.09-4.54-0.09h-9.44v-0.92a15.41 15.41 0 1 1 30.81 0z" fill="#FFFFFF" p-id="24962"></path><path d="M613.18 454.28l-1.12-0.19zM610.72 453.87l-1-0.16c0.28 0.04 0.66 0.1 1 0.16zM610 497c-0.86-0.2-1.72-0.4-2.6-0.58 0.91 0.22 1.75 0.41 2.6 0.58zM606.47 453.27l-5.36 42.18h0.18l-2.08-0.22h-0.37l4.72-42.23h-0.46l2.92 0.29zM606.2 496.23l-0.75-0.14zM604.32 495.9H603.99z" fill="#26251E" p-id="24963"></path><path d="M603.56 453l-4.68 42.26-0.69-0.06h-0.07l-1.5-0.09c-0.42 0-0.84-0.05-1.27-0.06l1.28-42.5h0.25c0.79 0 1.57 0.06 2.36 0.11l2.28 0.15h0.19l1.39 0.12zM601.61 495.51l1 0.14zM599.24 452.63c-0.79-0.05-1.57-0.08-2.36-0.11 0.79 0.02 1.56 0.06 2.36 0.11z" fill="#26251E" p-id="24964"></path><path d="M598.19 495.17l-1.57-0.1 1.5 0.09zM568.84 452.42v42.52a21.28 21.28 0 0 1-16.92-8.38 57.47 57.47 0 0 1-11.81-34.14z" fill="#26251E" p-id="24965"></path><path d="M568.84 494.94H463a21.25 21.25 0 0 0 16.92-8.39 57.38 57.38 0 0 0 11.8-34.13h48.4a57.47 57.47 0 0 0 11.81 34.14 21.28 21.28 0 0 0 16.91 8.38z" fill="#26251E" p-id="24966"></path><path d="M491.72 451.5v0.92H463v42.52h-23.26c-0.94 0-1.95 0-3.09 0.06h-0.17l-1.28-42.5c1.62-0.06 3.1-0.09 4.54-0.09h9.43v-0.92a15.4 15.4 0 1 0-30.8 0 15.13 15.13 0 0 0 0.25 2.78c-0.82 0.14-1.64 0.3-2.44 0.46-1.65 0.33-3.2 0.68-4.73 1.06-3.06 0.75-6.1 1.63-9 2.61l-1.15 0.39-0.2 0.07-0.15 0.05c-7.64 2.68-15.24 5.65-22.73 8.89a57.92 57.92 0 1 1 113.5-16.3z" fill="#26251E" p-id="24967"></path><path d="M463 452.42h28.72a57.38 57.38 0 0 1-11.8 34.13 21.25 21.25 0 0 1-16.92 8.39zM422.81 294.45a21.26 21.26 0 0 1 19.45 22.92 97.08 97.08 0 0 1-96.55 89c-2.65 0-5.3-0.11-8-0.32A97.31 97.31 0 0 1 255.47 345a122.52 122.52 0 0 1 6.77-13.13 19.07 19.07 0 0 0 2.61 0.17 21.38 21.38 0 0 0 8.05-1.58 75.7 75.7 0 0 0 148.17-14.8L327.65 308 371 290.21zM435.2 452.51l1.28 42.5c-0.43 0-0.86 0-1.28 0.06l-2.62-42.44h0.07c0.77-0.05 1.54-0.09 2.29-0.11h0.26z" fill="#26251E" p-id="24968"></path><path d="M432.58 452.63l2.62 42.44h-0.11l-1.51 0.1-3.2-42.39c0.68-0.06 1.39-0.1 2.09-0.14h0.14zM434.94 452.52c-0.75 0-1.52 0.06-2.29 0.11 0.77-0.06 1.53-0.09 2.29-0.11zM433.55 495.17h-0.34zM430.35 452.78l3.2 42.39h-0.69l-4.24-42.31h0.12zM428.62 452.93l4.24 42.31h-0.24l-1.9 0.19-5.36-42.18h0.34c0.97-0.14 1.94-0.25 2.92-0.32zM425.36 453.27l5.36 42.18h-0.18l-1.39 0.18-1.47 0.22h-0.18l-1.14 0.19-0.73 0.14-1 0.2-0.27 0.06c-0.89 0.17-1.7 0.35-2.47 0.55l-0.24 0.06-1.44 0.37c-1.44 0.38-2.84 0.8-4.21 1.26l-0.43 0.15a0.33 0.33 0 0 1-0.13 0 20.8 20.8 0 0 1-6.27 1 21.23 21.23 0 0 1-14.47-5.69 58.1 58.1 0 0 1-16.43-26.38c7.49-3.24 15.09-6.21 22.73-8.89l0.15-0.05 0.2-0.07 1.15-0.39c2.92-1 6-1.86 9-2.61 1.53-0.38 3.08-0.73 4.73-1.06 0.8-0.16 1.62-0.32 2.44-0.46l0.55-0.1 1.6-0.27h0.34l2.05-0.31zM425.63 496.23l0.73-0.14zM424.57 245.26A21.27 21.27 0 0 1 413 273l-42 17.21-46.7-3.83 80.59-33.05a75.69 75.69 0 0 0-145.66 31.75 21.27 21.27 0 0 0-5.4 4.65 21.27 21.27 0 0 0-15.26 3.57 96.95 96.95 0 0 1 186-48z" fill="#26251E" p-id="24969"></path><path d="M424.32 496.49c-0.83 0.17-1.65 0.35-2.47 0.55 0.77-0.2 1.58-0.38 2.47-0.55zM327.65 308l93.42 7.65a75.7 75.7 0 0 1-148.17 14.8l16.09-6.6z m66.19 26.75l-99.84-8.2a54.42 54.42 0 0 0 99.86 8.19zM420.8 453.91l-1.6 0.27zM416 498.73c1.37-0.46 2.77-0.88 4.21-1.26-1.42 0.39-2.84 0.82-4.24 1.29l-0.4 0.12zM404.9 253.33l-80.59 33.05-52.31-4.29a21.09 21.09 0 0 0-12.72 3 75.69 75.69 0 0 1 145.62-31.76z m-124.45 28.05l92.71-38a54.74 54.74 0 0 0-38.36-15.74 54.42 54.42 0 0 0-54.35 53.76z" fill="#26251E" p-id="24970"></path><path d="M294 326.55l99.86 8.19a54.42 54.42 0 0 1-99.86-8.19zM373.16 243.36l-92.71 38a54.43 54.43 0 0 1 92.71-38z" fill="#FFD72E" p-id="24971"></path><path d="M371.21 741.71a21.26 21.26 0 0 1-9.45 20 118.41 118.41 0 0 1-29.24-37.25l15.27-1.64a21.27 21.27 0 0 1 23.42 18.89zM371 290.21l-43.36 17.78-46.7-3.83 43.37-17.78 46.69 3.83z" fill="#26251E" p-id="24972"></path><path d="M361.76 761.74a21 21 0 0 1-9.41 3.38L223.1 779l-37.19 51.1a21.26 21.26 0 1 1-34.38-25l42.73-58.72a21.26 21.26 0 0 1 14.91-8.63l123.35-13.29a118.41 118.41 0 0 0 29.24 37.28zM353.14 670.14a21.26 21.26 0 0 1-18.58 23.64l-12.39 1.48L311 653.77l18.45-2.21a21.25 21.25 0 0 1 23.69 18.58zM334.82 606.37a21.26 21.26 0 0 1-20.64 21.86l-9.9 0.28-4.3-16a117.52 117.52 0 0 1-3.9-25 73.66 73.66 0 0 0 8.43 0.48 21 21 0 0 0 9.46-2.23 21.27 21.27 0 0 1 20.85 20.61zM327.65 308L289 323.83l-16.09 6.6a74.29 74.29 0 0 1-2.4-11.87 21.07 21.07 0 0 0 1.28-10.65l9.17-3.76z" fill="#26251E" p-id="24973"></path><path d="M324.31 286.38l-43.36 17.78-10.32-0.85a21.11 21.11 0 0 0-7.3-9.67 20.63 20.63 0 0 0-3.56-2.12c-0.28-2.15-0.45-4.29-0.53-6.44a21.09 21.09 0 0 1 12.72-3zM311 653.77l11.12 41.49L198.79 710l-59.52 50.21a21.26 21.26 0 0 1-27.42-32.5l64.39-54.31a21.23 21.23 0 0 1 11.18-4.86zM304.51 545.44a21.25 21.25 0 0 1 9.49 40.29h-1l-16.94 0.48a119.2 119.2 0 0 1 5.68-40.9c0.91 0.08 1.84 0.13 2.77 0.13z" fill="#26251E" p-id="24974"></path><path d="M313 585.73h1a21 21 0 0 1-9.46 2.23 73.66 73.66 0 0 1-8.43-0.48c0-0.42 0-0.85-0.06-1.27zM300 612.48l4.3 16-127 3.63-79.63 57.77a21.26 21.26 0 0 1-25-34.42l84.92-61.59a21.24 21.24 0 0 1 11.87-4l119.92-3.43q3.3 0.69 6.66 1.08a117.52 117.52 0 0 0 3.96 24.96z" fill="#26251E" p-id="24975"></path><path d="M296 586.21c0 0.42 0 0.85 0.06 1.27q-3.36-0.39-6.66-1.08z" fill="#26251E" p-id="24976"></path><path d="M296 586.21l-6.6 0.19c-52.57-11-91.84-78.93-91.84-163.62 0-48.14 13.13-93.57 36-124.64a21 21 0 0 1 5-4.84 96.73 96.73 0 0 0 6.6 25.52 21.09 21.09 0 0 0 5 7.27 95 95 0 0 0 5.31 18.91c-9.81 22-15.37 49.47-15.37 77.8 0 34.17 8.06 67.3 22.1 90.89 11.27 18.92 25.52 30.28 39.5 31.64a119.2 119.2 0 0 0-5.7 40.88zM280.95 304.16l-9.17 3.76a20.48 20.48 0 0 0-1.15-4.61zM271.78 307.92a21.07 21.07 0 0 1-1.28 10.65 75.6 75.6 0 0 1-0.53-9.91z" fill="#26251E" p-id="24977"></path><path d="M271.78 307.92l-1.81 0.74c0-1.78 0.1-3.57 0.25-5.38h0.41a20.48 20.48 0 0 1 1.15 4.64z" fill="#26251E" p-id="24978"></path><path d="M270.63 303.31h-0.41c-0.15 1.81-0.23 3.6-0.25 5.38l-5.12 2.1a75.87 75.87 0 0 1-5.08-19.24 20.63 20.63 0 0 1 3.56 2.12 21.11 21.11 0 0 1 7.3 9.64zM270.5 318.57a74.29 74.29 0 0 0 2.4 11.87 21.38 21.38 0 0 1-8.05 1.58 19.07 19.07 0 0 1-2.61-0.17 101.17 101.17 0 0 1 5.6-8.48 21.39 21.39 0 0 0 2.66-4.8z" fill="#26251E" p-id="24979"></path><path d="M270 308.66a75.6 75.6 0 0 0 0.53 9.91 21.39 21.39 0 0 1-2.66 4.8 101.17 101.17 0 0 0-5.6 8.48 20.72 20.72 0 0 1-5.59-1.48 21 21 0 0 1-6.51-4.28 95.8 95.8 0 0 1-1.43-17.69c0-2.3 0.14-4.62 0.32-6.87a21.16 21.16 0 0 1 4.81-11.8 21.21 21.21 0 0 1 5.93 1.79 75.87 75.87 0 0 0 5.08 19.24z" fill="#26251E" p-id="24980"></path><path d="M259.24 285.08c0.08 2.15 0.25 4.29 0.53 6.44a21.21 21.21 0 0 0-5.93-1.79 21.27 21.27 0 0 1 5.4-4.65zM256.65 330.37a20.72 20.72 0 0 0 5.59 1.48 122.52 122.52 0 0 0-6.77 13.15 95 95 0 0 1-5.33-18.89 21 21 0 0 0 6.51 4.26zM238.58 293.3a21.27 21.27 0 0 1 15.26-3.57 21.16 21.16 0 0 0-4.81 11.8c-0.18 2.25-0.29 4.57-0.32 6.87a95.8 95.8 0 0 0 1.43 17.69 21.09 21.09 0 0 1-5-7.27 96.73 96.73 0 0 1-6.56-25.52z" fill="#26251E" p-id="24981"></path></svg>