<?xml version="1.0" standalone="no"?><!DOCTYPE svg PUBLIC "-//W3C//DTD SVG 1.1//EN" "http://www.w3.org/Graphics/SVG/1.1/DTD/svg11.dtd"><svg t="1584512048796" class="icon" viewBox="0 0 1024 1024" version="1.1" xmlns="http://www.w3.org/2000/svg" p-id="23026" xmlns:xlink="http://www.w3.org/1999/xlink" width="200" height="200"><defs><style type="text/css"></style></defs><path d="M398.723195 273.841167c-10.787682-16.596434-19.0859-34.02269-24.06483-53.10859V92.940032h-5.808752c9.128039 0 16.596434-7.468395 16.596434-16.596434V17.426256c0-9.128039-7.468395-17.426256-16.596434-17.426256H270.100829c-9.128039 0-16.596434 7.468395-16.596435 16.596434v58.917342c-0.829822 9.128039 6.638574 16.596434 15.766613 17.426256h0.829822-7.468396v127.792545c-4.97893 18.256078-13.277147 36.512156-24.06483 53.10859C224.460634 292.927066 174.671331 342.71637 171.352044 402.463533v555.15073c-0.829822 28.213938 21.575365 51.448947 48.959481 52.278768h195.837926c28.213938-0.829822 49.789303-24.06483 48.959481-52.278768V402.463533c-2.489465-59.747164-52.278768-109.536467-66.385737-128.622366z m-34.852512-63.066451H274.249937V104.557536h90.450567v106.21718z" fill="#941404" p-id="23027"></path><path d="M226.120277 979.189627c-4.149109 0-6.638574-3.319287-6.638573-7.468395V416.570502c2.489465-53.10859 39.831442-97.918963 59.747163-122.813614 3.319287-4.149109 6.638574-8.298217 9.128039-10.787682 1.659643-3.319287 5.808752-4.149109 9.128039-1.659644 0 0 0.829822 0 0.829822 0.829822 3.319287 2.489465 3.319287 6.638574 0.829822 9.957861-2.489465 3.319287-5.808752 6.638574-9.128039 11.617504-18.256078 23.235008-53.938412 65.555916-56.427877 113.685575v554.320908c-0.829822 4.149109-3.319287 7.468395-7.468396 7.468395z" fill="#FFFFFF" p-id="23028"></path><path d="M797.867441 1024H537.303422v-45.640194l9.95786-4.149109c29.873582-14.106969 60.576985-22.405186 92.940033-25.724473V768.414911c-89.620746-15.766613-157.666126-107.876823-157.666127-217.41329-0.829822-48.959481 13.277147-96.259319 39.831443-136.920584l5.808752-7.468395h279.649919l4.97893 7.468395c26.554295 40.661264 40.661264 87.961102 39.831443 136.920584 0 109.536467-68.045381 201.646677-156.836305 217.41329v180.071313c32.363047 3.319287 63.066451 11.617504 92.940032 25.724473l9.957861 4.149109v45.640194z m-200.816856-33.192869h140.239871c-19.0859-5.808752-39.001621-9.128039-59.747164-9.95786l-12.447326-0.829822h-8.298217c-19.915721 1.659643-39.831442 4.97893-59.747164 10.787682zM546.431461 439.805511c-19.915721 33.192869-30.703404 71.364668-29.873582 111.19611 0 97.918963 62.236629 180.071313 141.899514 185.880065l7.468395 0.829821 12.447326-0.829821c79.662885-5.808752 141.899514-87.13128 141.899514-185.880065 0-39.001621-9.957861-77.17342-29.873582-110.366289H546.431461z" fill="#cdcdcd" p-id="23029"></path><path d="M520.706987 609.918963c19.915721 75.513776 78.003241 130.28201 146.878444 130.282009s127.792545-54.768233 146.878445-130.282009H520.706987z" fill="#941404" p-id="23030"></path><path d="M650.988997 718.625608c-0.829822 0-2.489465 0-3.319287-0.829822-30.703404-18.256078-55.598055-44.810373-72.194489-76.343598-18.256078-34.852512-28.213938-73.854133-27.384117-113.685575 0-24.06483 3.319287-48.959481 10.787682-72.19449 0.829822-3.319287 4.97893-5.808752 8.298218-4.97893 3.319287 1.659643 5.808752 4.97893 4.149108 9.128039-6.638574 22.405186-9.957861 44.810373-9.128039 68.045381 0 75.513776 36.512156 145.218801 92.940033 177.581847 3.319287 1.659643 4.97893 6.638574 2.489465 9.957861-1.659643 1.659643-4.149109 3.319287-6.638574 3.319287z" fill="#FFFFFF" p-id="23031"></path></svg>