<?xml version="1.0" standalone="no"?><!DOCTYPE svg PUBLIC "-//W3C//DTD SVG 1.1//EN" "http://www.w3.org/Graphics/SVG/1.1/DTD/svg11.dtd"><svg t="1584512178448" class="icon" viewBox="0 0 1024 1024" version="1.1" xmlns="http://www.w3.org/2000/svg" p-id="23370" xmlns:xlink="http://www.w3.org/1999/xlink" width="200" height="200"><defs><style type="text/css"></style></defs><path d="M197.2 266.8h622.3S863 394 863 513.7c0 127-43.5 246.9-43.5 246.9H197.2s-40.1-123.9-40.1-253.2c0-116.9 40.1-240.6 40.1-240.6z" fill="#F6C13F" p-id="23371"></path><path d="M197.2 757.6h622.3L849.6 885c-7.1 5.4-18.7 5.4-25.8 0L806 871.5 788.3 885c-7.1 5.4-18.7 5.4-25.8 0l-16-12.2-16 12.2c-7.1 5.4-18.7 5.4-25.8 0L687 871.6 669.1 885c-7.1 5.4-18.7 5.4-25.8 0l-16-12.2-16 12.2c-7.1 5.4-18.7 5.4-25.8 0l-17.7-13.4L550 885c-7.1 5.4-18.7 5.4-25.8 0l-16-12.2-16 12.2c-7.1 5.4-18.7 5.4-25.8 0l-17.7-13.4-17.9 13.4c-7.1 5.4-18.7 5.4-25.8 0l-15.8-12-15.8 12c-7.1 5.4-18.7 5.4-25.8 0l-17.7-13.4-17.7 13.4c-7.1 5.4-18.7 5.4-25.8 0l-16-12.2-16 12.2c-7.1 5.4-18.7 5.4-25.8 0l-17.7-13.4L193 885c-7.1 5.4-18.7 5.4-25.8 0l30-127.4zM819.5 276.2H197.2l-30.1-127.4c7.1-5.4 18.7-5.4 25.8 0l17.7 13.5 17.7-13.5c7.1-5.4 18.7-5.4 25.8 0l16 12.2 16-12.2c7.1-5.4 18.7-5.4 25.8 0l17.7 13.5 17.7-13.5c7.1-5.4 18.7-5.4 25.8 0l16 12.2 16-12.2c7.1-5.4 18.7-5.4 25.8 0l17.7 13.5 17.7-13.5c7.1-5.4 18.7-5.4 25.8 0l16 12.2 16-12.2c7.1-5.4 18.7-5.4 25.8 0l17.7 13.5 17.7-13.5c7.1-5.4 18.7-5.4 25.8 0l15.8 12 15.8-12c7.1-5.4 18.7-5.4 25.8 0l17.7 13.5 17.7-13.5c7.1-5.4 18.7-5.4 25.8 0l16 12.2 16-12.2c7.1-5.4 18.7-5.4 25.8 0l17.7 13.5 17.7-13.5c7.1-5.4 18.7-5.4 25.8 0l-29.2 127.4z" fill="#FCD662" p-id="23372"></path><path d="M510 760.7V266.8h309.5S863 394 863 513.7c0 127-43.5 246.9-43.5 246.9H510z" fill="#E5AC2E" p-id="23373"></path><path d="M823.7 885L806 871.5 788.3 885c-7.1 5.4-18.7 5.4-25.8 0l-16-12.2-16 12.2c-7.1 5.4-18.7 5.4-25.8 0L687 871.6 669.1 885c-7.1 5.4-18.7 5.4-25.8 0l-16-12.2-16 12.2c-7.1 5.4-18.7 5.4-25.8 0l-17.7-13.4L550 885c-7.1 5.4-18.7 5.4-25.8 0L510 874.3V757.6h309.5L849.6 885c-7.1 5.4-18.8 5.4-25.9 0z" fill="#F3BC36" p-id="23374"></path><path d="M503.6 375.8c134.7 0 243.9 60.3 243.9 134.8S638.3 645.4 503.6 645.4 259.8 585 259.8 510.6s109.1-134.8 243.8-134.8z" fill="#FCD662" p-id="23375"></path><path d="M510 276.2V159.9l14.6-11.1c7.1-5.4 18.7-5.4 25.8 0l17.7 13.5 17.7-13.5c7.1-5.4 18.7-5.4 25.8 0l15.8 12 15.8-12c7.1-5.4 18.7-5.4 25.8 0l17.7 13.5 17.7-13.5c7.1-5.4 18.7-5.4 25.8 0l16 12.2 16-12.2c7.1-5.4 18.7-5.4 25.8 0l17.7 13.5 17.7-13.5c7.1-5.4 18.7-5.4 25.8 0l-30.1 127.4H510z" fill="#F3BC36" p-id="23376"></path><path d="M510 645.2V376c131.7 1.9 237.4 61.4 237.4 134.6S641.7 643.3 510 645.2z" fill="#F8CC4D" p-id="23377"></path><path d="M394.1 460.6v13.1H341V503h50.1v13.1H341v45.2h-15.4V460.6h68.5zM488.5 473.5c8.5 9.5 12.7 22 12.7 37.6 0 15.4-4.2 27.8-12.7 37.4-8.9 9.9-21 14.8-36.3 14.8-15.4 0-27.5-5.1-36.3-15-8.5-9.6-12.6-22-12.6-37.3 0-15.4 4.1-27.8 12.6-37.4 8.8-10.2 20.9-15.1 36.3-15.1 15.3 0.1 27.4 5 36.3 15z m-61.3 9.5c-5.6 6.9-8.5 16.2-8.5 28.1 0 11.7 2.8 21 8.5 28 5.9 7.1 14.3 10.7 25 10.7s19.1-3.5 24.8-10.4c5.6-6.8 8.6-16.2 8.6-28.2 0-12.1-3-21.6-8.6-28.5-5.8-7.1-14.1-10.4-24.8-10.4s-19 3.4-25 10.7zM597.6 473.5c8.5 9.5 12.7 22 12.7 37.6 0 15.4-4.2 27.8-12.7 37.4-8.9 9.9-21 14.8-36.3 14.8-15.4 0-27.5-5.1-36.3-15-8.5-9.6-12.6-22-12.6-37.3 0-15.4 4.1-27.8 12.6-37.4 8.8-10.2 20.9-15.1 36.3-15.1 15.3 0.1 27.4 5 36.3 15z m-61.2 9.5c-5.6 6.9-8.5 16.2-8.5 28.1 0 11.7 2.8 21 8.5 28 5.9 7.1 14.3 10.7 25 10.7s19.1-3.5 24.8-10.4c5.6-6.8 8.6-16.2 8.6-28.2 0-12.1-3-21.6-8.6-28.5-5.8-7.1-14.1-10.4-24.8-10.4s-19.1 3.4-25 10.7zM662.6 460.6c16.2 0 28.5 4.5 37 13.7 7.9 8.5 11.9 20.8 11.9 36.7 0 15.8-4.1 28.1-12.1 36.9-8.5 9-20.8 13.6-37 13.6H626V460.6h36.6z m-21.3 87.6h18.2c12.7 0 22.2-3.1 28.1-9.2 5.8-6.1 8.8-15.4 8.8-28.1 0-13-3-22.3-8.6-28.2-5.9-6.1-15.2-9-28-9h-18.5v74.5z" fill="#7C5D26" p-id="23378"></path></svg>