<?xml version="1.0" standalone="no"?><!DOCTYPE svg PUBLIC "-//W3C//DTD SVG 1.1//EN" "http://www.w3.org/Graphics/SVG/1.1/DTD/svg11.dtd"><svg t="1584512642225" class="icon" viewBox="0 0 1024 1024" version="1.1" xmlns="http://www.w3.org/2000/svg" p-id="37381" xmlns:xlink="http://www.w3.org/1999/xlink" width="200" height="200"><defs><style type="text/css"></style></defs><path d="M644.654545 884.363636l20.945455-34.909091c6.981818-11.636364 9.309091-23.272727 9.309091-34.90909V444.509091c0-27.927273 18.618182-53.527273 46.545454-60.509091 27.927273-6.981818 46.545455-30.254545 46.545455-60.509091 0-41.890909-13.963636-81.454545-41.890909-111.709091-9.309091-9.309091-18.618182-18.618182-30.254546-27.927273L630.690909 139.636364l79.127273 2.327272c53.527273 2.327273 100.072727 6.981818 141.963636 11.636364 41.890909 4.654545 79.127273 25.6 107.054546 55.854545 27.927273 30.254545 41.890909 72.145455 41.890909 111.709091 0 27.927273-18.618182 53.527273-46.545455 60.509091-27.927273 6.981818-46.545455 30.254545-46.545454 60.509091v372.363637c0 39.563636-30.254545 69.818182-69.818182 69.818181h-193.163637z" fill="#C97629" p-id="37382"></path><path d="M837.818182 907.636364H605.090909c-13.963636 0-23.272727-9.309091-23.272727-23.272728s9.309091-23.272727 23.272727-23.272727c25.6 0 46.545455-20.945455 46.545455-46.545454V444.509091c0-39.563636 25.6-72.145455 65.163636-81.454546 16.290909-4.654545 27.927273-18.618182 27.927273-37.236363 0-34.909091-13.963636-69.818182-37.236364-97.745455-23.272727-27.927273-55.854545-44.218182-90.763636-48.872727-48.872727-6.981818-100.072727-11.636364-153.6-13.963636-11.636364 0-23.272727-11.636364-23.272728-23.272728s11.636364-23.272727 23.272728-23.272727l162.909091 2.327273c88.436364 0 162.909091 4.654545 228.072727 13.963636 46.545455 6.981818 88.436364 30.254545 121.018182 65.163637 30.254545 34.909091 48.872727 81.454545 48.872727 128 0 39.563636-25.6 72.145455-65.163636 81.454545-16.290909 4.654545-27.927273 18.618182-27.927273 37.236364V814.545455c0 51.2-41.890909 93.090909-93.090909 93.090909z m-151.272727-46.545455H837.818182c25.6 0 46.545455-20.945455 46.545454-46.545454V444.509091c0-39.563636 25.6-72.145455 65.163637-81.454546 16.290909-4.654545 27.927273-18.618182 27.927272-37.236363 0-34.909091-13.963636-69.818182-37.236363-97.745455-23.272727-27.927273-55.854545-44.218182-90.763637-48.872727-41.890909-6.981818-88.436364-9.309091-139.636363-11.636364 11.636364 9.309091 23.272727 18.618182 34.909091 30.254546 30.254545 34.909091 48.872727 81.454545 48.872727 128 0 39.563636-25.6 72.145455-65.163636 81.454545-16.290909 4.654545-27.927273 18.618182-27.927273 37.236364V814.545455c-2.327273 16.290909-6.981818 32.581818-13.963636 46.545454z" fill="#014463" p-id="37383"></path><path d="M186.181818 884.363636c-39.563636 0-69.818182-30.254545-69.818182-69.818181V444.509091c0-27.927273-18.618182-53.527273-46.545454-60.509091-27.927273-6.981818-46.545455-30.254545-46.545455-60.509091 0-83.781818 62.836364-158.254545 148.945455-169.890909 69.818182-9.309091 146.618182-13.963636 223.418182-13.963636s153.6 4.654545 223.418181 16.290909c83.781818 11.636364 148.945455 86.109091 148.945455 169.890909 0 27.927273-18.618182 53.527273-46.545455 60.509091-27.927273 6.981818-46.545455 30.254545-46.545454 60.509091V814.545455c0 39.563636-30.254545 69.818182-69.818182 69.818181H186.181818z" fill="#FFE1B7" p-id="37384"></path><path d="M605.090909 907.636364H186.181818c-51.2 0-93.090909-41.890909-93.090909-93.090909V444.509091c0-18.618182-11.636364-32.581818-27.927273-37.236364-39.563636-9.309091-65.163636-44.218182-65.163636-83.781818 0-95.418182 72.145455-179.2 167.563636-193.163636 72.145455-9.309091 151.272727-13.963636 228.072728-13.963637 76.8 0 155.927273 4.654545 228.072727 16.290909 95.418182 13.963636 167.563636 95.418182 167.563636 193.163637 0 39.563636-25.6 72.145455-65.163636 81.454545-16.290909 4.654545-27.927273 18.618182-27.927273 37.236364V814.545455c0 51.2-41.890909 93.090909-93.090909 93.090909zM395.636364 162.909091c-74.472727 0-151.272727 4.654545-221.090909 13.963636-72.145455 11.636364-128 74.472727-128 146.618182 0 18.618182 11.636364 32.581818 27.927272 37.236364 39.563636 9.309091 65.163636 44.218182 65.163637 83.781818V814.545455c0 25.6 20.945455 46.545455 46.545454 46.545454h418.909091c25.6 0 46.545455-20.945455 46.545455-46.545454V444.509091c0-39.563636 25.6-72.145455 65.163636-81.454546 16.290909-4.654545 27.927273-18.618182 27.927273-37.236363 0-72.145455-55.854545-137.309091-128-146.618182-69.818182-11.636364-146.618182-16.290909-221.090909-16.290909z" fill="#014463" p-id="37385"></path><path d="M686.545455 207.127273c23.272727 25.6 34.909091 58.181818 34.90909 95.418182 0 18.618182-11.636364 32.581818-27.927272 37.236363-39.563636 9.309091-65.163636 44.218182-65.163637 81.454546V814.545455c0 13.963636-9.309091 23.272727-23.272727 23.272727H146.618182c9.309091 13.963636 23.272727 23.272727 39.563636 23.272727h418.909091c25.6 0 46.545455-20.945455 46.545455-46.545454V444.509091c0-39.563636 25.6-74.472727 62.836363-83.781818 18.618182-4.654545 30.254545-18.618182 30.254546-37.236364 0-46.545455-23.272727-88.436364-58.181818-116.363636zM418.909091 281.6c0 13.963636-9.309091 23.272727-23.272727 23.272727s-23.272727-9.309091-23.272728-23.272727 9.309091-23.272727 23.272728-23.272727 23.272727 9.309091 23.272727 23.272727zM558.545455 281.6c0 13.963636-9.309091 23.272727-23.272728 23.272727s-23.272727-9.309091-23.272727-23.272727 9.309091-23.272727 23.272727-23.272727 23.272727 9.309091 23.272728 23.272727zM488.727273 374.690909c0 13.963636-9.309091 23.272727-23.272728 23.272727s-23.272727-9.309091-23.272727-23.272727 9.309091-23.272727 23.272727-23.272727 23.272727 9.309091 23.272728 23.272727zM279.272727 281.6c0 13.963636-9.309091 23.272727-23.272727 23.272727s-23.272727-9.309091-23.272727-23.272727 9.309091-23.272727 23.272727-23.272727 23.272727 9.309091 23.272727 23.272727zM418.909091 467.781818c0 13.963636-9.309091 23.272727-23.272727 23.272727s-23.272727-9.309091-23.272728-23.272727 9.309091-23.272727 23.272728-23.272727 23.272727 9.309091 23.272727 23.272727z" fill="#E9CBA4" p-id="37386"></path><path d="M558.545455 467.781818c0 13.963636-9.309091 23.272727-23.272728 23.272727s-23.272727-9.309091-23.272727-23.272727 9.309091-23.272727 23.272727-23.272727 23.272727 9.309091 23.272728 23.272727zM279.272727 467.781818c0 13.963636-9.309091 23.272727-23.272727 23.272727s-23.272727-9.309091-23.272727-23.272727 9.309091-23.272727 23.272727-23.272727 23.272727 9.309091 23.272727 23.272727zM349.090909 374.690909c0 13.963636-9.309091 23.272727-23.272727 23.272727s-23.272727-9.309091-23.272727-23.272727 9.309091-23.272727 23.272727-23.272727 23.272727 9.309091 23.272727 23.272727zM488.727273 560.872727c0 13.963636-9.309091 23.272727-23.272728 23.272728s-23.272727-9.309091-23.272727-23.272728 9.309091-23.272727 23.272727-23.272727 23.272727 9.309091 23.272728 23.272727zM349.090909 560.872727c0 13.963636-9.309091 23.272727-23.272727 23.272728s-23.272727-9.309091-23.272727-23.272728 9.309091-23.272727 23.272727-23.272727 23.272727 9.309091 23.272727 23.272727zM418.909091 653.963636c0 13.963636-9.309091 23.272727-23.272727 23.272728s-23.272727-9.309091-23.272728-23.272728 9.309091-23.272727 23.272728-23.272727 23.272727 9.309091 23.272727 23.272727zM558.545455 653.963636c0 13.963636-9.309091 23.272727-23.272728 23.272728s-23.272727-9.309091-23.272727-23.272728 9.309091-23.272727 23.272727-23.272727 23.272727 9.309091 23.272728 23.272727zM279.272727 653.963636c0 13.963636-9.309091 23.272727-23.272727 23.272728s-23.272727-9.309091-23.272727-23.272728 9.309091-23.272727 23.272727-23.272727 23.272727 9.309091 23.272727 23.272727zM488.727273 747.054545c0 13.963636-9.309091 23.272727-23.272728 23.272728s-23.272727-9.309091-23.272727-23.272728 9.309091-23.272727 23.272727-23.272727 23.272727 9.309091 23.272728 23.272727zM349.090909 747.054545c0 13.963636-9.309091 23.272727-23.272727 23.272728s-23.272727-9.309091-23.272727-23.272728 9.309091-23.272727 23.272727-23.272727 23.272727 9.309091 23.272727 23.272727z" fill="#E9CBA4" p-id="37387"></path><path d="M940.218182 228.072727c-13.963636-16.290909-30.254545-27.927273-48.872727-37.236363 4.654545 4.654545 11.636364 9.309091 13.963636 13.963636 23.272727 25.6 37.236364 60.509091 37.236364 95.418182 0 18.618182-11.636364 34.909091-27.927273 37.236363-9.309091 2.327273-18.618182 6.981818-27.927273 11.636364-18.618182 13.963636-39.563636 20.945455-62.836364 20.945455H814.545455c-13.963636 0-23.272727 9.309091-23.272728 23.272727s9.309091 23.272727 23.272728 23.272727h11.636363c13.963636 0 23.272727 9.309091 23.272727 23.272727v349.09091c0 13.963636-9.309091 23.272727-23.272727 23.272727h-69.818182c-30.254545 0-55.854545 18.618182-72.145454 44.218182H837.818182c9.309091 0 16.290909-2.327273 23.272727-6.981819 13.963636-6.981818 23.272727-23.272727 23.272727-39.563636v-372.363636c0-37.236364 25.6-74.472727 62.836364-81.454546 18.618182-4.654545 30.254545-18.618182 30.254545-37.236363 0-30.254545-13.963636-65.163636-37.236363-90.763637z" fill="#B06328" p-id="37388"></path></svg>