<?xml version="1.0" standalone="no"?><!DOCTYPE svg PUBLIC "-//W3C//DTD SVG 1.1//EN" "http://www.w3.org/Graphics/SVG/1.1/DTD/svg11.dtd"><svg t="1584542585174" class="icon" viewBox="0 0 1024 1024" version="1.1" xmlns="http://www.w3.org/2000/svg" p-id="43713" xmlns:xlink="http://www.w3.org/1999/xlink" width="200" height="200"><defs><style type="text/css"></style></defs><path d="M647.951059 398.486588H282.322824c-19.757176 0-35.809882-15.058824-35.809883-33.581176 0-18.552471 16.052706-33.611294 35.84-33.611294h365.628235c19.757176 0 35.809882 15.058824 35.809883 33.611294 0 18.552471-16.052706 33.581176-35.84 33.581176zM647.951059 555.068235H282.322824c-19.757176 0-35.809882-15.058824-35.809883-33.611294 0-18.552471 16.052706-33.611294 35.84-33.611294h365.628235c19.757176 0 35.809882 15.058824 35.809883 33.611294 0 18.552471-16.052706 33.611294-35.84 33.611294zM504.952471 722.823529H282.473412c-19.787294 0-35.84-15.058824-35.84-33.611294 0-18.552471 16.052706-33.581176 35.84-33.581176h222.479059c19.757176 0 35.809882 15.058824 35.809882 33.581176 0 18.552471-16.052706 33.611294-35.84 33.611294z" fill="#000000" p-id="43714"></path><path d="M898.108235 993.882353H125.891765C106.315294 993.882353 90.352941 978.371765 90.352941 959.247059V64.752941C90.352941 45.658353 106.285176 30.117647 125.891765 30.117647h772.21647C917.684706 30.117647 933.647059 45.628235 933.647059 64.752941v894.494118c0 19.124706-15.932235 34.635294-35.538824 34.635294z m-35.44847-521.216a34.213647 34.213647 0 0 1-0.120471-2.921412v-370.447059H161.460706v370.447059c0 0.993882-0.030118 1.957647-0.120471 2.921412v451.885176h701.31953V472.666353z" fill="#000000" p-id="43715"></path></svg>