<?xml version="1.0" standalone="no"?><!DOCTYPE svg PUBLIC "-//W3C//DTD SVG 1.1//EN" "http://www.w3.org/Graphics/SVG/1.1/DTD/svg11.dtd"><svg t="1586063221632" class="icon" viewBox="0 0 1024 1024" version="1.1" xmlns="http://www.w3.org/2000/svg" p-id="2981" xmlns:xlink="http://www.w3.org/1999/xlink" width="200" height="200"><defs><style type="text/css"></style></defs><path d="M267.885 730.392v-20.038l92.756-106.481c-10.518 0.551-19.809 0.835-27.847 0.835h-59.413v-20.038h119.097v16.334l-78.899 92.475-15.23 16.875c11.069-0.821 21.453-1.225 31.148-1.225h67.374v21.264h-128.98z" p-id="2982"></path><path d="M482.46 583.366v-22.57l104.473-119.92c-11.85 0.62-22.314 0.929-31.378 0.929h-66.916v-22.57h134.139v18.395l-88.864 104.15-17.145 19.002c12.455-0.915 24.157-1.387 35.082-1.387h75.871v23.943h-145.264z" p-id="2983"></path><path d="M712.818 317.781v-33.708l156.077-179.158c-17.695 0.929-33.33 1.401-46.863 1.401h-99.977v-33.708h200.395v27.485l-132.752 155.593-25.614 28.387c18.608-1.373 36.092-2.060 52.411-2.060h113.345v35.783h-217.025z" p-id="2984"></path><path d="M774.293 378.676v483.259c0 34.462-28.695 62.39-64.074 62.39h-479.892c-35.376 0-64.046-27.927-64.046-62.39v-627.538c0-34.462 28.67-62.39 64.046-62.39h434.631v-62.7h-18.8v0.309h-158.528v-62.39h-64.046v62.39h-129.199v-62.39h-64.062v62.39c-70.766 0-128.093 55.845-128.093 124.78v627.538c0 68.894 57.34 124.78 128.093 124.78h479.877c70.766 0 128.134-55.887 128.121-124.78v-483.259h-64.032z" p-id="2985"></path></svg>