<?xml version="1.0" standalone="no"?><!DOCTYPE svg PUBLIC "-//W3C//DTD SVG 1.1//EN" "http://www.w3.org/Graphics/SVG/1.1/DTD/svg11.dtd"><svg t="1584512502475" class="icon" viewBox="0 0 1024 1024" version="1.1" xmlns="http://www.w3.org/2000/svg" p-id="34716" xmlns:xlink="http://www.w3.org/1999/xlink" width="200" height="200"><defs><style type="text/css"></style></defs><path d="M855.104 910.208A113.792 113.792 0 0 1 741.344 1024H257.792A113.792 113.792 0 0 1 144 910.208v-483.52a113.792 113.792 0 0 1 113.792-113.792h483.52a113.792 113.792 0 0 1 113.792 113.76v483.552z" fill="#80DEEA" p-id="34717"></path><path d="M175.552 165.888L144 118.528c89.92-59.904 151.296-61.632 158.016-61.632h170.656v56.896H302.016c-0.192 0-50.784 1.664-126.464 52.096zM400 227.52h199.104v85.376H400z" fill="#546E7A" p-id="34718"></path><path d="M144 568.896v341.312A113.792 113.792 0 0 0 257.792 1024h483.52a113.792 113.792 0 0 0 113.792-113.792V568.896H144z" fill="#00ACC1" p-id="34719"></path><path d="M656 824.896a85.44 85.44 0 0 1-85.344-85.344A85.44 85.44 0 0 1 656 654.208a85.44 85.44 0 0 1 85.344 85.344A85.44 85.44 0 0 1 656 824.896z" fill="#80DEEA" p-id="34720"></path><path d="M442.848 938.656a71.264 71.264 0 0 1-71.296-71.104 71.104 71.104 0 1 1 71.296 71.104z" fill="#4DD0E1" p-id="34721"></path><path d="M599.104 227.552V28.48A28.416 28.416 0 0 0 570.656 0H428.48A28.416 28.416 0 0 0 400 28.448V227.52h199.104z" fill="#B0BEC5" p-id="34722"></path><path d="M414.272 682.656a128.224 128.224 0 0 1-128.064-128.064 128.16 128.16 0 0 1 128.064-127.936 128.096 128.096 0 0 1 127.936 127.936 128.16 128.16 0 0 1-127.936 128.064z" fill="#E0F7FA" p-id="34723"></path><path d="M287.68 568.896c7.232 63.808 60.896 113.76 126.592 113.76s119.264-49.92 126.496-113.76H287.68z" fill="#B2EBF2" p-id="34724"></path></svg>